<svg width="92" height="32" viewBox="0 0 92 32" fill="none" xmlns="http://www.w3.org/2000/svg">
<g clip-path="url(#clip0_1193_7205)">
<path d="M16.2558 0.107434C18.3905 0.107434 20.5049 0.519365 22.4765 1.31837C24.441 2.11345 26.2316 3.2841 27.748 4.76466C29.2518 6.23434 30.4498 7.98732 31.2715 9.92286C32.087 11.8478 32.5075 13.9172 32.5078 16.0078C32.5078 19.1531 31.5533 22.2271 29.7685 24.8428C27.9655 27.4696 25.4273 29.5064 22.4726 30.6983C19.4958 31.9017 16.2338 32.2159 13.082 31.6026C9.94239 30.9957 7.04896 29.4827 4.75973 27.25C2.49583 25.0425 0.946259 22.2061 0.311492 19.1084C-0.315036 16.0227 0.00838732 12.8194 1.23825 9.92091C2.48228 7.00143 4.56635 4.51808 7.22555 2.78614C9.91145 1.03475 13.0494 0.103606 16.2558 0.107434ZM28.3349 10.4893C28.2336 10.2667 28.1464 10.1557 27.8652 10.2432C27.5008 10.3634 27.1473 10.5153 26.8095 10.6973C25.8612 11.1322 24.9885 11.7161 24.2256 12.4277C23.4686 13.1526 22.8752 14.0311 22.4853 15.0039C22.2144 15.7401 22.0779 16.5192 22.082 17.3037C22.082 19.9273 23.7144 21.7832 25.9902 21.7832C26.4771 21.7862 26.9581 21.6945 27.4062 21.5117C27.8533 21.3289 28.2608 21.0605 28.5986 20.7217C28.9384 20.3829 29.2049 19.9812 29.3808 19.5391C29.5577 19.0988 29.6408 18.6274 29.6269 18.1543C29.6269 16.2602 28.1771 14.7988 26.2978 14.7988L26.2968 14.8096C25.6975 14.7842 25.1085 14.9704 24.6328 15.3359C24.815 14.7604 25.0981 14.2219 25.4697 13.7461C25.6933 13.444 25.9568 13.1711 26.2509 12.9346C26.9845 12.2945 27.8517 11.8259 28.789 11.5625L28.8662 11.543L28.3349 10.4893ZM6.73434 10.541C5.94791 10.5538 5.17131 10.7222 4.45016 11.0361C3.94782 11.2538 3.47619 11.5377 3.0488 11.8799L4.12888 13.2295C4.76806 12.6709 5.58387 12.3554 6.43259 12.3389C7.33365 12.339 7.75192 12.8487 7.75192 13.5303C7.7519 14.371 7.17822 14.7861 6.02048 14.7861C5.82266 14.7861 5.46459 14.7692 5.07419 14.7344L4.95212 14.7227V16.4824H5.74411C6.23455 16.455 6.7261 16.5193 7.19333 16.6709C7.40921 16.7914 7.58784 16.9687 7.70993 17.1836C7.83114 17.3957 7.88974 17.6378 7.87888 17.8818C7.87888 19.3406 6.39953 20.33 4.23727 20.3301C3.82783 20.3331 3.41702 20.2878 3.0195 20.1934L3.48825 21.333C3.52427 21.4369 3.58774 21.5296 3.67087 21.6016C3.75505 21.6745 3.8566 21.725 3.96579 21.7471C4.2003 21.7689 4.43501 21.779 4.66989 21.7774L4.93942 21.7637C8.10663 21.7637 10.3554 20.248 10.3554 18.0547C10.3553 16.9477 9.66952 16.0371 8.5029 15.6397C8.70623 15.5688 8.89731 15.4737 9.07614 15.3545C9.40409 15.119 9.6678 14.8099 9.8447 14.4531C10.0215 14.0954 10.1057 13.7021 10.0908 13.3057C10.0908 11.7186 8.67517 10.5411 6.73434 10.541ZM17.3408 10.4893C17.2325 10.2746 17.1333 10.1587 16.8779 10.2432C16.5132 10.3633 16.1594 10.5153 15.8213 10.6973C14.8729 11.1322 14.0002 11.7161 13.2373 12.4277C12.4783 13.1507 11.8848 14.0297 11.498 15.0039C11.225 15.7356 11.0872 16.5111 11.0908 17.292C11.0909 19.9155 12.7233 21.7715 14.997 21.7715C15.4819 21.7734 15.9631 21.6818 16.4101 21.499C16.8572 21.3172 17.2628 21.0497 17.6015 20.7129C17.9402 20.3752 18.2069 19.9752 18.3838 19.5361C18.5607 19.0969 18.6457 18.6264 18.6338 18.1543C18.6337 16.2602 17.1898 14.7988 15.3066 14.7988V14.8096C14.7078 14.7838 14.1193 14.9701 13.6445 15.3359C13.8256 14.7594 14.1099 14.2204 14.4843 13.7461C14.7063 13.442 14.9652 13.1711 15.2607 12.9346C16.0008 12.2959 16.8731 11.8283 17.8144 11.5645L17.8877 11.543L17.3408 10.4893ZM15.0273 16.5244C15.8979 16.5244 16.4433 17.1777 16.4433 18.1943C16.4432 19.3857 15.8343 20.1464 14.9033 20.1465C13.9363 20.1465 13.3632 19.3525 13.3632 18.0029C13.3633 17.7557 13.3776 17.4796 13.3955 17.1787C13.4096 17.1379 13.4144 17.0938 13.4101 17.0508C13.8901 16.7294 14.4501 16.5475 15.0273 16.5244ZM26.0107 16.5244C26.8852 16.5244 27.4287 17.1777 27.4287 18.1943C27.4286 19.3857 26.8207 20.1464 25.8896 20.1465C24.9217 20.1465 24.3496 19.3525 24.3496 18.0029C24.3496 17.7557 24.364 17.4796 24.3759 17.1787C24.3904 17.138 24.3956 17.0938 24.3916 17.0508C24.8733 16.7314 25.4333 16.5496 26.0107 16.5244ZM20.748 14.6777C20.5957 14.6767 20.4482 14.7299 20.331 14.8272C20.215 14.9222 20.1374 15.0561 20.1133 15.2041C20.0896 15.0564 20.0127 14.9226 19.8974 14.8272C19.7812 14.7308 19.6344 14.6778 19.4824 14.6777C19.3003 14.6751 19.1241 14.7445 18.9922 14.8701C18.9278 14.9309 18.8761 15.0038 18.8408 15.085C18.8054 15.1663 18.7866 15.2541 18.7861 15.3428C18.784 15.6178 18.8883 15.8831 19.0761 16.084C19.4014 16.4781 19.7469 16.8542 20.1133 17.2119C20.4909 16.8621 20.8392 16.4861 21.1572 16.084C21.3419 15.8793 21.4443 15.6159 21.4433 15.3428C21.4425 15.2541 21.4238 15.1664 21.3886 15.085C21.3535 15.0036 21.3022 14.9296 21.2383 14.8682C21.1062 14.7431 20.9299 14.6748 20.748 14.6777Z" fill="white"/>
<path d="M60.8821 13.2254C59.7943 13.2254 58.9486 12.9223 58.345 12.3161C57.7408 11.7092 57.431 10.8503 57.4158 9.73921C57.4158 8.59503 57.6984 7.70989 58.2635 7.08381C58.8286 6.45772 59.6111 6.14534 60.6108 6.14666C61.5649 6.14666 62.3076 6.42194 62.8389 6.9725C63.3703 7.52306 63.6359 8.28033 63.6359 9.2443V10.1496H59.2812C59.2742 10.6038 59.4402 11.0441 59.7452 11.3859C59.9079 11.539 60.0999 11.6573 60.3097 11.7339C60.5195 11.8104 60.7427 11.8435 60.9656 11.8311C61.3532 11.8331 61.7408 11.7904 62.1184 11.7019C62.5106 11.6063 62.8917 11.4697 63.2553 11.2945V12.7355C62.9278 12.9006 62.5805 13.0228 62.2218 13.0992C61.7806 13.1855 61.3316 13.2254 60.8821 13.2185V13.2254ZM60.6287 7.46144C60.4578 7.45356 60.2872 7.48319 60.1289 7.54826C59.9706 7.61333 59.8284 7.71225 59.7125 7.83809C59.4724 8.14197 59.3387 8.51623 59.3318 8.90343H61.9157C61.9325 8.5166 61.8058 8.13719 61.5599 7.83809C61.4388 7.7132 61.2923 7.61575 61.1302 7.55232C60.9682 7.48889 60.7945 7.46095 60.6208 7.47039L60.6287 7.46144ZM82.4146 13.2254C81.328 13.2254 80.482 12.9223 79.8764 12.3161C79.2709 11.7092 78.9625 10.8503 78.9512 9.73921C78.9512 8.59503 79.2334 7.70989 79.7979 7.08381C80.3637 6.45706 81.1455 6.14467 82.1433 6.14666C83.0973 6.14666 83.84 6.42194 84.3713 6.9725C84.9027 7.52306 85.1684 8.28033 85.1684 9.2443V10.1496H80.8156C80.8086 10.6038 80.9746 11.0441 81.2807 11.3859C81.443 11.5393 81.635 11.658 81.8449 11.7345C82.0547 11.8111 82.278 11.844 82.501 11.8311C82.8886 11.8331 83.2762 11.7904 83.6538 11.7019C84.0449 11.6068 84.4246 11.4702 84.7867 11.2945V12.7355C84.4588 12.9044 84.109 13.0286 83.7472 13.1072C83.3051 13.1933 82.8551 13.2329 82.4046 13.2254H82.4146ZM82.1502 7.4694C81.979 7.46109 81.8081 7.49042 81.6494 7.55533C81.4908 7.62023 81.3483 7.71912 81.232 7.84505C80.9917 8.14919 80.858 8.52384 80.8513 8.91138H83.4421C83.46 8.5248 83.3328 8.14617 83.0844 7.84505C82.9653 7.71971 82.8208 7.62133 82.6605 7.55653C82.5002 7.49173 82.3279 7.46202 82.1552 7.4694H82.1502ZM42.182 26.0234L41.6901 24.7414H41.6205C41.2754 25.2176 40.8238 25.6066 40.3018 25.8773C39.7387 26.108 39.1329 26.2157 38.5249 26.1934C38.1373 26.2142 37.7497 26.1556 37.387 26.0224C37.0249 25.8901 36.6943 25.684 36.4161 25.4172C35.9092 24.9005 35.6555 24.1644 35.6548 23.209C35.6548 22.2106 36.001 21.4689 36.6933 20.9839C37.385 20.4996 38.4272 20.2379 39.8198 20.1988L41.4357 20.1462V19.7457C41.4357 18.7916 40.9527 18.3146 39.9867 18.3146C39.0725 18.3554 38.178 18.5889 37.3631 18.9964L36.5204 17.2652C37.6194 16.6916 38.8436 16.3996 40.0831 16.4155C41.332 16.4155 42.2893 16.6904 42.9552 17.2403C43.623 17.7909 43.9566 18.6277 43.9559 19.7506V26.0284H42.179L42.182 26.0234ZM41.4178 21.6637L40.4339 21.6985C39.6946 21.7223 39.1453 21.8568 38.7862 22.1019C38.6044 22.2291 38.4593 22.4001 38.3649 22.5988C38.2699 22.7957 38.2281 23.0139 38.2436 23.2319C38.2436 23.9573 38.6544 24.3201 39.4759 24.3201C39.7353 24.331 39.9937 24.2913 40.2362 24.2028C40.4787 24.1144 40.7003 23.9792 40.8881 23.8053C41.067 23.6254 41.2061 23.4108 41.2975 23.1762C41.389 22.9417 41.4297 22.6913 41.4178 22.4408V21.6637ZM68.8712 26.1934C67.3719 26.1934 66.2002 25.7747 65.3562 24.9372C64.5121 24.0998 64.0891 22.9149 64.0871 21.3824C64.0871 19.8017 64.477 18.5803 65.2568 17.7183C66.0366 16.8557 67.1162 16.4214 68.4956 16.4155C69.8113 16.4155 70.8356 16.7944 71.5684 17.5524C72.3011 18.311 72.6675 19.3594 72.6675 20.6977V21.934H66.663C66.652 22.5649 66.8816 23.1764 67.305 23.6443C67.5256 23.856 67.789 24.0209 68.0782 24.1263C68.3674 24.2326 68.6764 24.2783 68.9855 24.2605C69.5216 24.2624 70.0562 24.2024 70.5785 24.0816C71.1183 23.9503 71.6424 23.7614 72.1418 23.5181V25.4957C71.6902 25.7202 71.2121 25.8865 70.7187 25.9906C70.1099 26.1099 69.4905 26.1655 68.8702 26.1566L68.8712 26.1934ZM68.5204 18.254C68.2825 18.2411 68.0448 18.2819 67.8248 18.3732C67.6061 18.4627 67.4093 18.5998 67.2523 18.7737C66.9198 19.1917 66.7359 19.7085 66.7296 20.2426H70.2824C70.3057 19.7088 70.1301 19.1854 69.7895 18.7737C69.6294 18.6005 69.4329 18.4651 69.2141 18.3772C68.994 18.2882 68.7576 18.2455 68.5204 18.254ZM89.6692 26.0234L89.1773 24.7414H89.1117C88.7657 25.218 88.3131 25.6069 87.79 25.8773C87.2274 26.1095 86.6212 26.2173 86.0131 26.1934C85.6255 26.2137 85.2378 26.1556 84.8732 26.0224C84.5108 25.8903 84.1798 25.6842 83.9013 25.4172C83.3938 24.9005 83.14 24.1644 83.14 23.209C83.14 22.2106 83.4862 21.4689 84.1785 20.9839C84.8702 20.5003 85.9104 20.2422 87.299 20.2098L88.9159 20.1581V19.7457C88.9159 18.7916 88.433 18.3146 87.467 18.3146C86.5527 18.3564 85.6583 18.5889 84.8434 18.9964L84.0026 17.2652C85.0981 16.6916 86.319 16.3996 87.5554 16.4155C88.8043 16.4155 89.763 16.6904 90.4315 17.2403C91.0993 17.7909 91.4315 18.6277 91.4282 19.7506V26.0284H89.6523L89.6692 26.0234ZM88.8911 21.6637L87.9082 21.6985C87.1708 21.7223 86.6209 21.8568 86.2585 22.1019C86.0787 22.2301 85.9336 22.4011 85.8392 22.5988C85.745 22.7959 85.7035 23.014 85.7189 23.2319C85.7176 23.9567 86.1277 24.3194 86.9492 24.3201C87.2076 24.337 87.467 24.3002 87.7105 24.2127C87.953 24.1233 88.1736 23.9862 88.3564 23.8083C88.5402 23.6332 88.6833 23.4199 88.7755 23.1834C88.8677 22.9469 88.9068 22.6931 88.8901 22.4398L88.8911 21.6637ZM85.873 6.27287L85.5033 6.75784V7.67213H87.7184V13.1042H89.5609V7.67213H91.4262V6.27287H85.873ZM76.2382 6.27287V8.89846H73.6672V6.27287H72.2064L71.8248 6.76977V13.1042H73.6672V10.2858H76.2382V13.1042H78.0807V6.27287H76.2382ZM51.4084 6.27287L51.0764 6.70517V7.67213H53.2926V13.1042H55.1341V7.67213H57.1713V6.27287H51.4084ZM48.2928 6.27287V8.89846H45.7189V6.27287H44.2382L43.8774 6.74294V13.1042H45.7199V10.2858H48.2928V13.1042H50.1353V6.27287H48.2928ZM40.3833 6.27784L37.2687 11.0619C37.3602 9.9542 37.4059 9.25788 37.4059 8.973V6.27784H35.9649L35.625 6.72306V13.1042H37.8352L40.9388 8.32405C40.8586 9.20919 40.8189 9.89358 40.8195 10.3772V13.0972H42.5954V6.27784H40.3773M70.1115 7.07884C69.9057 6.77923 69.6269 6.53706 69.3015 6.37523C68.9731 6.21049 68.6084 6.1312 68.2411 6.14467C67.8585 6.12778 67.4769 6.21325 67.14 6.39213C66.8031 6.57101 66.5219 6.83536 66.3281 7.15735H66.2367L65.9833 6.27784H64.4856V15.9454H66.0339L66.3281 15.5678V13.3417C66.3281 13.2516 66.296 12.922 66.2317 12.3529H66.3281C66.5418 12.6361 66.824 12.8637 67.149 13.0157C67.4749 13.1678 67.8327 13.2393 68.1935 13.2254C68.6864 13.2354 69.1703 13.0883 69.5689 12.805C69.9862 12.487 70.3003 12.0577 70.4722 11.5688C70.6965 10.9606 70.8044 10.3157 70.7902 9.66766C70.7902 8.55991 70.564 7.69465 70.1115 7.07188V7.07884ZM67.6737 11.7168C67.4766 11.7307 67.2793 11.6941 67.1003 11.6105C66.9231 11.5276 66.7706 11.3998 66.658 11.2398C66.4427 10.9218 66.3354 10.3961 66.3361 9.66269V9.46194C66.3361 8.80339 66.4444 8.33631 66.661 8.0607C66.7773 7.91362 66.9294 7.79834 67.1033 7.72381C67.2782 7.65026 67.469 7.61946 67.6578 7.63436C67.8484 7.62218 68.0387 7.66202 68.2084 7.74964C68.3773 7.8371 68.5184 7.96828 68.6148 8.12927C68.8474 8.59933 68.9527 9.12008 68.9189 9.63983C68.9136 11.0245 68.4985 11.7168 67.6737 11.7168ZM79.0059 21.1201L82.6958 16.6033H79.8973L76.3316 21.1797V16.6033H74.2208L73.7915 17.1618V26.0234H76.3316V21.2463L80.1378 26.0234H83.0208L79.0059 21.1201ZM46.2526 16.6033L45.8054 17.1867V26.0234H48.3465V18.5313H51.7184V26.0234H54.2695V16.6023L46.2526 16.6033ZM55.8407 16.6033L55.3855 17.1966V18.5313H58.4434V26.0234H60.9835V18.5313H63.6936V16.6033H55.8407Z" fill="white"/>
</g>
<defs>
<clipPath id="clip0_1193_7205">
<rect width="91.4286" height="32" fill="white"/>
</clipPath>
</defs>
</svg>
