<svg width="149" height="32" viewBox="0 0 149 32" fill="none" xmlns="http://www.w3.org/2000/svg">
<path d="M85.2882 23.3604C85.2919 23.3169 85.2994 23.2754 85.2994 23.2308V8.45038C85.2994 7.96614 85.1229 7.55401 84.7723 7.21237C84.4192 6.87185 83.9928 6.70153 83.493 6.70153C83.0728 6.70153 82.7147 6.82623 82.4163 7.07525C82.2945 7.15382 82.1789 7.2585 82.0707 7.38966L72.2505 18.8122V6.62843H68.7248L68.7243 8.30418C68.7197 8.35975 68.7104 8.41284 68.7092 8.4709V23.2308C68.7104 23.7156 68.8827 24.1283 69.2272 24.4693C69.5723 24.8098 70.0027 24.9796 70.5174 24.9796C70.8829 24.9796 71.2136 24.8754 71.5107 24.6661C71.6475 24.587 71.7954 24.4562 71.9595 24.2725L81.7612 12.9217V25.0993H85.2882V23.3604ZM65.1878 19.4868C65.6953 18.3535 65.9489 17.1379 65.9499 15.8409C65.9489 14.5437 65.6943 13.3253 65.1878 12.1849C64.6802 11.0451 63.989 10.0525 63.116 9.20763C62.2421 8.36224 61.2207 7.69425 60.0483 7.20292C58.8778 6.7116 57.6226 6.46619 56.2824 6.46619C54.9553 6.46619 53.7031 6.7116 52.5255 7.20292C51.3484 7.69425 50.3188 8.36224 49.4402 9.20763C48.5595 10.0525 47.8661 11.0451 47.3585 12.1849C46.8535 13.3187 46.6005 14.5308 46.5979 15.8204H46.584V18.5757V32H50.1092L50.1102 23.0495C50.9572 23.7231 51.8979 24.2529 52.9312 24.6366C53.9742 25.0226 55.0914 25.2165 56.2814 25.2165C57.6226 25.2165 58.8778 24.9705 60.0493 24.4793C61.2202 23.988 62.2421 23.3169 63.116 22.4646C63.989 21.6132 64.6791 20.6206 65.1878 19.4868ZM62.435 15.8409C62.435 16.6532 62.2752 17.4234 61.9585 18.1501C61.6409 18.8777 61.2036 19.5138 60.649 20.0572C60.0938 20.6006 59.4433 21.0327 58.6988 21.3542C57.9542 21.6752 57.1492 21.8355 56.2824 21.8355C55.4303 21.8355 54.6236 21.6752 53.8667 21.3542C53.1076 21.0327 52.4525 20.6006 51.8968 20.0572C51.3417 19.5138 50.9018 18.8777 50.5769 18.1501C50.3057 17.5441 50.1552 16.9066 50.1102 16.241V15.8204H50.09C50.0926 15.0029 50.2551 14.2333 50.5769 13.5116C50.9018 12.7844 51.3442 12.1528 51.9071 11.615C52.4671 11.0787 53.1257 10.652 53.877 10.3375C54.6278 10.0229 55.4292 9.86617 56.2814 9.86617C57.1481 9.86617 57.9548 10.0229 58.6999 10.3375C59.4433 10.652 60.0938 11.0787 60.6484 11.615C61.2036 12.1528 61.6409 12.7844 61.9585 13.5116C62.2763 14.2387 62.435 15.0155 62.435 15.8409Z" fill="white"/>
<path d="M128.325 23.3094V8.52898C128.325 8.04475 128.149 7.6315 127.798 7.29048C127.445 6.94996 127.019 6.78013 126.518 6.78013C126.097 6.78013 125.738 6.90483 125.441 7.15372C125.32 7.23192 125.205 7.3371 125.097 7.46826L115.275 18.8902V6.70703H111.751L111.749 8.38278C111.746 8.43835 111.736 8.49094 111.734 8.5495V23.3094C111.734 23.7936 111.906 24.2069 112.252 24.5479C112.598 24.8884 113.027 25.0582 113.542 25.0582C113.908 25.0582 114.239 24.954 114.537 24.7447C114.672 24.6656 114.82 24.5353 114.984 24.3506L124.788 12.9993V25.1778H128.313V23.439C128.317 23.395 128.325 23.3539 128.325 23.3094Z" fill="white"/>
<path d="M104.293 12.411L109.867 6.61157H108.142H105.349L99.7755 12.411L98.802 13.4186L92.7798 7.19104C92.7748 7.18607 92.7686 7.18259 92.7624 7.1765L92.2191 6.61157H92.2054H89.5673H87.6875L90.3543 9.38658C90.3916 9.43619 90.4276 9.48778 90.4724 9.53391L96.4822 15.7685L93.2945 19.0853H93.2746L89.5673 22.9425V22.9635L87.5234 25.0904H92.0413L98.7697 18.0902L104.824 24.3498C104.842 24.3673 104.86 24.3793 104.878 24.3949L105.349 24.8847H105.376H108.142H109.897L107.181 22.0606C107.152 22.0235 107.128 21.9835 107.094 21.9489L104.98 19.7699L101.116 15.7479H101.078L101.072 15.7414L104.283 12.411H104.293Z" fill="white"/>
<path d="M148.631 8.46533V6.62646H145.684H145.105H145.082V14.0193H135.47V6.62646H131.943V25.1778H135.47V17.4504H145.082V25.1778H145.105H145.684H148.631V23.4005V8.46533Z" fill="white"/>
<path d="M38.7294 12.2033L45.3047 6.6633H40.1362L39.5468 7.1591C39.3911 7.25172 39.2856 7.3339 39.2856 7.3339L39.2328 7.38388L34.1808 11.6688L32.3144 13.2374H31.1046V6.80702H27.5785V25.1936H31.1046V16.6094H32.0955L33.3135 17.6906L39.227 23.6181L40.2061 24.6072C40.2107 24.6118 40.2154 24.6148 40.22 24.6188L40.7736 25.1842L40.7923 25.1741L40.7985 25.1847H45.702L36.0347 15.4895L35.5012 14.9411L38.7294 12.2033ZM21.6618 25.1936H25.4151L24.4087 22.898C24.3937 22.8595 24.3839 22.8213 24.3658 22.7828L23.9116 21.7642L23.0376 19.7719H23.0225L14.658 1.02165C14.5085 0.694679 14.2953 0.441682 14.0179 0.264895C13.7401 0.0881449 13.4256 0 13.0737 0C12.7078 0 12.3866 0.0881449 12.1087 0.264895C11.8314 0.441682 11.6181 0.701145 11.4692 1.04167L3.12316 19.7719H3.0968L0.71875 25.1936H4.47268L4.87773 24.2702C4.9011 24.2257 4.92957 24.1866 4.94971 24.139L6.8388 19.8346H19.3116L21.6618 25.1936ZM17.8873 16.4526H8.23992L13.0939 5.42529L17.8873 16.4526Z" fill="white"/>
</svg>
