<svg width="206" height="32" viewBox="0 0 206 32" fill="none" xmlns="http://www.w3.org/2000/svg">
<g clip-path="url(#clip0_1193_7283)">
<path fill-rule="evenodd" clip-rule="evenodd" d="M0.972656 20.4902C0.972656 20.4902 7.15529 20.5494 9.95661 21.0506C18.8765 22.6307 19.2188 30.8752 19.2188 30.8752C19.2188 30.8752 17.7656 30.9561 13.9329 30.9561C4.99485 30.9561 0.972656 20.4902 0.972656 20.4902Z" fill="#A9A9A9"/>
<path fill-rule="evenodd" clip-rule="evenodd" d="M38.6941 20.4902C38.6941 20.4902 32.5122 20.5494 29.709 21.0506C20.7927 22.6307 20.4512 30.8752 20.4512 30.8752C20.4512 30.8752 21.9025 30.9561 25.7352 30.9561C34.675 30.9561 38.6941 20.4902 38.6941 20.4902Z" fill="#A9A9A9"/>
<path fill-rule="evenodd" clip-rule="evenodd" d="M23.1658 19.5322C23.1658 21.3212 21.6743 22.7715 19.8343 22.7715C17.9936 22.7715 16.502 21.3212 16.502 19.5322C16.502 17.7432 17.9936 16.293 19.8343 16.293C21.6743 16.293 23.1658 17.7432 23.1658 19.5322Z" fill="white"/>
<path fill-rule="evenodd" clip-rule="evenodd" d="M29.9764 16.3447C29.9764 18.1337 28.4848 19.584 26.6448 19.584C24.8042 19.584 23.3125 18.1337 23.3125 16.3447C23.3125 14.5557 24.8042 13.1055 26.6448 13.1055C28.4848 13.1055 29.9764 14.5557 29.9764 16.3447Z" fill="white"/>
<path fill-rule="evenodd" clip-rule="evenodd" d="M26.9452 3.43359C26.9452 5.22256 25.4536 6.67282 23.6136 6.67282C21.7729 6.67282 20.2812 5.22256 20.2812 3.43359C20.2812 1.6446 21.7729 0.194336 23.6136 0.194336C25.4536 0.194336 26.9452 1.6446 26.9452 3.43359Z" fill="white"/>
<path fill-rule="evenodd" clip-rule="evenodd" d="M19.3866 3.43359C19.3866 5.22256 17.8949 6.67282 16.0549 6.67282C14.2143 6.67282 12.7227 5.22256 12.7227 3.43359C12.7227 1.6446 14.2143 0.194336 16.0549 0.194336C17.8949 0.194336 19.3866 1.6446 19.3866 3.43359Z" fill="white"/>
<path fill-rule="evenodd" clip-rule="evenodd" d="M16.3553 16.3447C16.3553 18.1337 14.8637 19.584 13.0237 19.584C11.183 19.584 9.69141 18.1337 9.69141 16.3447C9.69141 14.5557 11.183 13.1055 13.0237 13.1055C14.8637 13.1055 16.3553 14.5557 16.3553 16.3447Z" fill="white"/>
<path fill-rule="evenodd" clip-rule="evenodd" d="M31.6581 9.1787C31.6581 10.9677 30.1664 12.4179 28.3264 12.4179C26.4858 12.4179 24.9941 10.9677 24.9941 9.1787C24.9941 7.38972 26.4858 5.93945 28.3264 5.93945C30.1664 5.93945 31.6581 7.38972 31.6581 9.1787Z" fill="white"/>
<path fill-rule="evenodd" clip-rule="evenodd" d="M14.6737 9.1787C14.6737 10.9677 13.182 12.4179 11.342 12.4179C9.5014 12.4179 8.00977 10.9677 8.00977 9.1787C8.00977 7.38972 9.5014 5.93945 11.342 5.93945C13.182 5.93945 14.6737 7.38972 14.6737 9.1787Z" fill="white"/>
<path fill-rule="evenodd" clip-rule="evenodd" d="M55.299 28.0824C51.6835 28.112 45.3574 27.0862 45.3574 19.8808C45.3574 12.7629 51.6835 11.5614 55.299 11.6785V9.42279H61.2039V11.6785C64.8195 11.5614 71.1461 12.7629 71.1461 19.8808C71.1461 27.0862 64.8195 28.112 61.2039 28.0824V30.9528H55.299V28.0824ZM55.7212 15.7794C54.2451 15.7503 51.2618 16.2484 51.2618 19.8808C51.2618 23.5124 54.2451 24.0105 55.7212 23.9816V15.7794ZM60.7829 23.9816C62.2591 24.0105 65.241 23.5124 65.241 19.8808C65.241 16.2484 62.2591 15.7503 60.7829 15.7794V23.9816ZM73.337 20.7001C73.337 15.2227 76.9518 9.86234 84.6646 9.86234C92.3774 9.86234 95.9921 15.2227 95.9921 20.7001C95.9921 26.1788 92.3774 31.539 84.6646 31.539C76.9518 31.539 73.337 26.1788 73.337 20.7001ZM89.9063 20.7001C89.9063 16.7465 87.4057 14.7837 84.6646 14.7837C81.9228 14.7837 79.4222 16.7465 79.4222 20.7001C79.4222 24.6548 81.9228 26.617 84.6646 26.617C87.4057 26.617 89.9063 24.6548 89.9063 20.7001ZM114.648 30.0157C112.749 31.2751 110.761 31.539 108.954 31.539C102.687 31.539 98.1669 27.2618 98.1669 20.7001C98.1669 13.8461 103.139 9.86234 108.863 9.86234C110.731 9.86234 112.87 10.3315 114.648 11.5028V17.4488C113.563 16.2189 111.905 14.989 109.647 14.989C106.392 14.989 104.253 17.5074 104.253 20.8757C104.253 23.9816 106.272 26.4124 109.647 26.4124C111.845 26.4124 113.563 25.2701 114.648 24.1863V30.0157ZM123.677 10.4486H130.847L138.35 30.9528H132.022L130.847 27.4087H123.677L122.502 30.9528H116.175L123.677 10.4486ZM124.853 22.8972H129.671L127.262 15.3397L124.853 22.8972ZM140.406 10.4486H153.06V15.3694H146.311V30.9528H140.406V10.4486ZM155.388 10.4486H164.276C170.271 10.4486 171.958 14.4909 171.958 17.3027C171.958 20.144 170.241 24.1863 164.276 24.1863H161.294V30.9528H155.388V10.4486ZM161.294 19.6755H162.98C165.602 19.6755 165.873 18.1817 165.873 17.3027C165.873 16.2775 165.511 14.96 162.98 14.96H161.294V19.6755ZM173.95 20.7001C173.95 15.2227 177.566 9.86234 185.278 9.86234C192.99 9.86234 196.606 15.2227 196.606 20.7001C196.606 26.1788 192.99 31.539 185.278 31.539C177.566 31.539 173.95 26.1788 173.95 20.7001ZM190.519 20.7001C190.519 16.7465 188.018 14.7837 185.278 14.7837C182.535 14.7837 180.034 16.7465 180.034 20.7001C180.034 24.6548 182.535 26.617 185.278 26.617C188.018 26.617 190.519 24.6548 190.519 20.7001ZM204.353 12.6771C204.353 14.5253 202.939 15.9182 201.019 15.9182C199.1 15.9182 197.686 14.5253 197.686 12.6771C197.686 10.8199 199.1 9.41797 201.019 9.41797C202.939 9.41797 204.353 10.8199 204.353 12.6771ZM198.236 12.6771C198.236 14.2397 199.385 15.4364 201.019 15.4364C202.654 15.4364 203.802 14.2397 203.802 12.6771C203.802 11.1055 202.654 9.90038 201.019 9.90038C199.385 9.90038 198.236 11.1055 198.236 12.6771ZM200.869 10.7849C201.291 10.7849 202.246 10.8555 202.246 11.9182C202.246 12.4894 201.897 12.8558 201.402 12.9536L202.686 14.5343H201.86L200.721 13.0527H200.538V14.5343H199.877V10.7849H200.869ZM200.538 12.4628H200.785C201.061 12.4628 201.584 12.4362 201.584 11.9182C201.584 11.3736 201.052 11.3736 200.804 11.3736H200.538V12.4628Z" fill="white"/>
</g>
<defs>
<clipPath id="clip0_1193_7283">
<rect width="204.308" height="32" fill="white" transform="translate(0.972656)"/>
</clipPath>
</defs>
</svg>
