<svg width="69" height="32" viewBox="0 0 69 32" fill="none" xmlns="http://www.w3.org/2000/svg">
<path fill-rule="evenodd" clip-rule="evenodd" d="M35.0156 19.4286L37.5103 11.0744H35.0535V9.67725H39.7954V11.071L37.3017 19.4006H39.9228V20.8368H35.0156V19.4286Z" fill="white"/>
<path fill-rule="evenodd" clip-rule="evenodd" d="M28.5371 20.8369H30.6252L30.8238 17.8708H31.831L32.0285 20.8369H34.1169L33.0041 9.67712H29.6507L28.5371 20.8369ZM30.8993 16.6441L31.2669 11.0613H31.3873L31.7538 16.6441H30.8993Z" fill="white"/>
<path fill-rule="evenodd" clip-rule="evenodd" d="M41.123 20.8371H43.2573V17.043H44.4766C45.9712 17.043 46.2081 15.8304 46.2081 15.0485V11.6707C46.2081 10.8888 45.9712 9.67712 44.4766 9.67712H41.123V20.8371ZM43.2573 15.8138V11.0626H43.8179C44.0485 11.0626 44.2155 11.2694 44.2155 11.618V15.2579C44.2155 15.6081 44.0485 15.8138 43.8179 15.8138H43.2573Z" fill="white"/>
<path fill-rule="evenodd" clip-rule="evenodd" d="M49.5522 11.0626H50.113C50.343 11.0626 50.5097 11.2691 50.5097 11.618V15.2579C50.5097 15.6081 50.343 15.8135 50.113 15.8135H49.5522V11.0626ZM52.8837 20.8369L51.8527 16.723C52.3917 16.3091 52.5026 15.5799 52.5026 15.0485V11.6707C52.5026 10.8891 52.2659 9.67712 50.7713 9.67712H47.418V20.8369H49.5522V17.0432H49.9037L50.6006 20.8369H52.8837Z" fill="white"/>
<path fill-rule="evenodd" clip-rule="evenodd" d="M65.7376 9.67651H68.513V20.8367H66.3764V13.8379H66.3022L65.2024 20.8367H63.4972L62.3992 13.8379H62.3228V20.8367H60.1875V9.67651H62.9611L64.3475 17.5204L65.7376 9.67651Z" fill="white"/>
<path fill-rule="evenodd" clip-rule="evenodd" d="M56.3631 19.4572C56.1024 19.4572 55.8909 19.2588 55.8909 19.0141C55.8909 19.0085 55.8916 19.0034 55.8918 18.9976V11.5169C55.8916 11.5111 55.8916 11.4889 55.8918 11.4833L55.8938 11.4539C55.9185 11.2308 56.1198 11.0572 56.3629 11.0572C56.6076 11.0572 56.808 11.2308 56.8331 11.4539L56.8351 11.4833V11.5169V18.9976C56.8351 19.0034 56.8358 19.0085 56.8358 19.0141C56.8358 19.2588 56.6238 19.4572 56.3631 19.4572ZM57.2466 9.67712H55.4784C53.9831 9.67712 53.8945 10.8891 53.8945 11.6707V18.8426C53.8945 19.6247 53.9831 20.8369 55.4784 20.8369H57.2466C58.7405 20.8369 58.832 19.6247 58.832 18.8426V11.6707C58.832 10.8891 58.7405 9.67712 57.2466 9.67712Z" fill="white"/>
<path fill-rule="evenodd" clip-rule="evenodd" d="M25.3701 13.2228H27.3669V11.6707C27.3669 10.8891 27.2756 9.67712 25.7817 9.67712H24.0135C22.5179 9.67712 22.4297 10.8891 22.4297 11.6707V18.8424C22.4297 19.6245 22.5179 20.8371 24.0135 20.8371H25.7817C27.2756 20.8371 27.3669 19.6245 27.3669 18.8424V15.3341H24.8124V16.592H25.3701V18.9976C25.3701 19.0036 25.3707 19.0088 25.3707 19.0141C25.3707 19.259 25.159 19.4572 24.8981 19.4572C24.6371 19.4572 24.4259 19.259 24.4259 19.0141C24.4259 19.0088 24.4263 19.0036 24.4265 18.9976V11.5171C24.4263 11.5113 24.4263 11.4889 24.4265 11.4837L24.4285 11.4537C24.4535 11.2312 24.6545 11.0572 24.8979 11.0572C25.1425 11.0572 25.3429 11.2312 25.3681 11.4537L25.3701 11.4837V11.5171V13.2228Z" fill="white"/>
<path fill-rule="evenodd" clip-rule="evenodd" d="M66.5781 26.6819H65.7222V30.617H64.6507V26.6819H63.7343V25.7625H66.5781V26.6819ZM53.562 26.6819H52.0185V27.6353H53.4001V28.5548H52.0185V30.617H50.8521V25.7625H53.562V26.6819ZM40.5742 26.6819H39.0311V27.6353H40.4124V28.5548H39.0311V29.697H40.5742V30.617H37.8649V25.7625H40.5742V26.6819ZM27.4183 30.617H26.2927L25.2884 27.6622H25.2817C25.3358 28.1763 25.4769 28.947 25.4769 29.4676V30.617H24.3649V25.7625H25.491L26.4812 28.8116H26.4884C26.4541 28.2705 26.3058 27.5068 26.3058 26.9722V25.7625H27.4183V30.617ZM22.4297 31.9996H68.5137V24.558H22.4297V31.9996Z" fill="white"/>
<mask id="mask0_156_305" style="mask-type:luminance" maskUnits="userSpaceOnUse" x="12" y="-1" width="7" height="22">
<path d="M12.373 -0.00012207H18.642V20.2103H12.373V-0.00012207Z" fill="white"/>
</mask>
<g mask="url(#mask0_156_305)">
<path fill-rule="evenodd" clip-rule="evenodd" d="M17.8892 10.8092C17.8638 11.9402 17.7293 13.1357 17.559 13.849C17.6202 12.6185 17.4735 10.8832 17.1912 9.52772C16.9107 8.17137 16.1156 5.91117 15.4807 4.86223C14.8947 5.85959 14.1716 7.81754 13.7938 9.51561C13.4139 11.2164 13.4021 13.2723 13.4021 13.8883C13.3019 13.3667 13.049 11.5146 13.1212 9.65149C13.1804 8.11419 13.5373 6.53631 13.7332 5.80959C14.4781 3.38346 15.3222 1.8345 15.4807 1.58852C15.6396 1.8345 16.703 3.742 17.2538 5.74883C17.8023 7.75678 17.9126 9.6766 17.8892 10.8092ZM15.4934 19.4726C15.1634 18.8457 14.6494 17.6512 14.5997 15.8079C14.5879 14.0237 15.2966 12.494 15.5036 12.1756C15.6886 12.494 16.2995 13.8264 16.3723 15.6478C16.4209 17.4297 15.8353 18.8322 15.4934 19.4726ZM18.084 5.77349C17.4123 2.80607 15.7258 0.39519 15.4934 -0.00012207C15.1258 0.55439 13.7797 2.68342 13.0973 5.04744C12.3508 7.68278 12.2413 10.0206 12.4985 12.3236C12.7543 14.6246 13.7205 16.988 13.7205 16.988C14.2341 18.2293 15.0033 19.5581 15.5036 20.2103C16.2377 19.2509 17.9257 16.3861 18.4511 12.6429C18.7439 10.5632 18.7561 8.74023 18.084 5.77349Z" fill="white"/>
</g>
<path fill-rule="evenodd" clip-rule="evenodd" d="M11.3633 20.8368V24.3473C11.3676 24.3426 11.3713 24.337 11.3771 24.3309C12.595 23.1102 14.5715 23.1102 15.79 24.3309C17.0079 25.5534 17.0079 27.5383 15.79 28.7585C15.7842 28.7643 15.7793 28.7686 15.7738 28.7737L15.7731 28.7746C15.768 28.7809 15.7609 28.7861 15.7555 28.7921C14.5406 30.0012 12.9521 30.6088 11.3633 30.6088C9.76768 30.6088 8.1727 29.9949 6.95421 28.7769C4.81065 26.6252 4.55551 23.2957 6.19056 20.8653C6.41097 20.5361 6.66456 20.2244 6.95421 19.9341C8.1727 18.7131 9.76768 18.1048 11.3633 18.1048V9.73376C5.23277 9.73376 0.261719 14.7199 0.261719 20.8653C0.261719 27.0142 5.23277 31.9999 11.3633 31.9999C14.5608 31.9999 17.4398 30.6429 19.4642 28.476V20.8368H11.3633Z" fill="white"/>
</svg>
