<svg width="128" height="32" viewBox="0 0 128 32" fill="none" xmlns="http://www.w3.org/2000/svg">
<g clip-path="url(#clip0_1193_7202)">
<path d="M40.1709 8.16644H43.2548L41.7201 3.67325L40.1709 8.16644ZM40.188 0.723969H43.2878L47.8047 12.5303H44.738L44.0135 10.4309H39.3976L38.689 12.5303H35.6882L40.188 0.723969ZM56.3147 12.5303V3.18236H51.7305V12.5316H48.9105V0.722649H59.132V12.5303H56.3147ZM64.2296 3.16521H60.4028V0.723969H70.9067V3.16521H67.0641V12.5303H64.2296V3.16521ZM72.1762 0.722649H81.3433V3.16521H74.9961V5.23432H80.9963V7.69271H74.9961V10.0719H81.3433V12.5303H72.1762V0.722649ZM86.0424 6.81519H86.0265V12.5303H83.2079V0.722649H86.0265V6.17914H86.0424L90.0671 0.722649H93.3291L89.0101 6.2438L93.5099 12.5303H90.1476L86.0424 6.81519ZM95.2109 0.722649H97.9319V8.37626L103.008 0.722649H105.728V12.5303H103.01V4.87671L97.9319 12.5303H95.2109V0.722649ZM45.3503 19.5848H39.6945V28.95H36.8759V17.141H45.3503V19.5848ZM51.5985 26.865C53.3668 26.865 54.813 25.5613 54.813 23.054C54.813 20.5468 53.3628 19.2404 51.5985 19.2404C49.8342 19.2404 48.3827 20.5455 48.3827 23.054C48.3827 25.5626 49.8355 26.865 51.5985 26.865ZM51.5972 29.1611C47.9208 29.1611 45.3991 26.7344 45.3991 23.054C45.3991 19.3737 47.9261 16.9457 51.5972 16.9457C55.2683 16.9457 57.7966 19.3724 57.7966 23.0554C57.7966 26.7383 55.2564 29.1624 51.5972 29.1624M62.1684 19.4898V22.5196H64.0317C65.3499 22.5196 66.3898 22.2253 66.3898 20.9889C66.3898 19.7524 65.3499 19.4911 64.0317 19.4911L62.1684 19.4898ZM63.9485 17.1449C67.0496 17.1449 69.372 17.8931 69.372 20.9889C69.372 24.0846 67.0496 24.8579 63.9485 24.8579H62.1684V28.9473H59.3485V17.141L63.9485 17.1449ZM79.9749 25.4306C79.9749 28.0856 77.6181 29.1598 75.4567 29.1598C71.9624 29.1598 70.3802 27.3862 70.1651 24.9094H72.9362C73.0616 26.2118 73.9259 26.8149 75.1927 26.8149C76.3975 26.8149 76.9913 26.2619 76.9913 25.2841C76.9913 24.437 76.3804 23.9316 75.1769 23.9316H73.7597V21.8611H75.0225C76.094 21.8611 76.8699 21.39 76.8699 20.5904C76.8699 19.6469 76.061 19.2391 75.1861 19.2391C73.9853 19.2391 72.9956 19.9068 72.9455 21.0799H70.1823C70.4462 18.7337 72.1762 16.943 75.293 16.943C77.8662 16.943 79.6609 18.1491 79.6609 20.1523C79.6609 21.4547 79.0842 22.1224 78.0774 22.6595C79.331 23.1477 79.9736 23.8814 79.9736 25.428M89.1592 26.4889V19.6007H85.9434L85.8286 22.0287C85.7125 24.0635 85.3826 25.5217 84.641 26.4889H89.1592ZM80.7244 31.3107V26.4889H81.4001C82.8015 26.4889 82.9664 24.5029 83.0971 21.2765L83.2633 17.1396H91.9805V26.4889H93.5456V31.3107H90.8932V28.9486H83.3768V31.3107H80.7244ZM98.0467 19.4898V22.5196H99.9099C101.23 22.5196 102.267 22.2253 102.267 20.9889C102.267 19.7524 101.228 19.4911 99.9099 19.4911L98.0467 19.4898ZM99.8281 17.1449C102.927 17.1449 105.252 17.8931 105.252 20.9889C105.252 24.0846 102.927 24.8579 99.8281 24.8579H98.0467V28.9473H95.228V17.141L99.8281 17.1449ZM108.452 24.5834H111.533L110.002 20.0902L108.452 24.5834ZM108.467 17.141H111.566L116.084 28.95H113.017L112.292 26.8544H107.677L106.968 28.9552H103.969L108.467 17.141ZM120.013 26.605H122.652C123.854 26.605 124.465 26.1049 124.465 25.2696C124.465 24.433 123.854 23.9342 122.65 23.9342H120.013V26.605ZM120.013 21.8624H122.503C123.492 21.8624 124.035 21.3887 124.035 20.6563C124.035 19.924 123.492 19.4845 122.503 19.4845H120.013V21.8624ZM117.194 17.1383H122.402C125.026 17.1383 126.969 17.7242 126.969 20.1998C126.969 21.2911 126.476 22.0907 125.552 22.6595C126.674 23.0514 127.447 23.8814 127.447 25.3158C127.447 27.9695 125.518 28.9473 122.617 28.9473H117.19L117.194 17.1383ZM19.9047 9.32108V0.625H8.80165V9.32108H0V20.2921H8.80165V28.9882H19.9047V20.2921H28.7063V9.32108H19.9047ZM10.1173 24.3076V18.9409H1.19687V10.6776H10.1173V5.30954L19.6473 14.8106L10.1173 24.3076Z" fill="white"/>
</g>
<defs>
<clipPath id="clip0_1193_7202">
<rect width="128" height="32" fill="white"/>
</clipPath>
</defs>
</svg>
