<svg width="114" height="32" viewBox="0 0 114 32" fill="none" xmlns="http://www.w3.org/2000/svg">
<mask id="mask0_156_291" style="mask-type:luminance" maskUnits="userSpaceOnUse" x="0" y="0" width="114" height="32">
<path d="M113.718 0H0.339844V32H113.718V0Z" fill="white"/>
</mask>
<g mask="url(#mask0_156_291)">
<path d="M3.73213 17.3069C6.74126 17.3069 8.32356 14.2765 9.70462 10.1759H9.92718C9.37081 13.7185 9.54763 17.3069 12.8692 17.3069C15.8555 17.3069 17.2823 14.2536 18.5292 10.1759H18.7518C18.1725 13.653 18.328 17.3069 21.7381 17.3069C24.7242 17.3069 26.395 14.3207 27.0412 10.1972H24.947C24.7015 11.1103 24.2776 12.002 23.4986 12.002C21.8722 12.002 22.7639 9.28263 23.4759 5.87414L24.5017 0.926011H19.4881C19.4881 0.926011 16.8357 12.002 14.7411 12.002C13.2031 12.002 13.9607 8.97164 14.607 5.82837L15.6116 0.926011H10.5979C9.66195 4.60277 7.67874 12.002 5.82816 12.002C5.22602 12.002 5.07055 11.6225 5.07055 11.1332C5.07055 10.8207 5.15897 10.4869 5.27176 10.1972H0.68035C0.434926 11.1774 0.300781 12.1134 0.300781 13.0722C0.300781 15.4792 1.19254 17.3069 3.73213 17.3069ZM29.8066 17.3069C31.122 17.3069 32.1694 16.281 32.1694 14.967C32.1694 13.653 31.122 12.6271 29.8066 12.6271C28.491 12.6271 27.4437 13.6514 27.4437 14.967C27.4437 16.2825 28.491 17.3069 29.8066 17.3069ZM43.3779 11.9807C43.3779 13.0951 42.5534 13.5859 41.6402 13.5859H38.4313V10.3329H41.6631C42.6888 10.3329 43.3794 10.9563 43.3794 11.9823L43.3779 11.9807ZM38.4298 4.31467H41.3721C42.2195 4.31467 42.8871 4.78265 42.8871 5.76282C42.8871 6.74299 42.1066 7.21097 41.3721 7.21097H38.4298V4.31312V4.31467ZM44.6477 8.57077C45.8505 8.1027 47.0548 7.03264 47.0548 5.0052C47.0548 2.4199 45.1159 0.927533 42.1296 0.927533H34.3294V16.9715H42.218C45.2484 16.9715 47.5441 15.5005 47.5441 12.5142C47.5441 10.4198 46.2957 9.0372 44.6463 8.525V8.56922L44.6477 8.57077ZM109.588 8.97165C109.588 11.2445 108.116 13.2947 105.443 13.2947C102.769 13.2947 101.187 11.2887 101.187 8.92743C101.187 6.56621 102.658 4.60432 105.331 4.60432C108.006 4.60432 109.588 6.61034 109.588 8.97165ZM97.0192 8.94876C97.0192 13.7841 100.675 17.3054 105.399 17.3054C110.122 17.3054 113.755 13.7398 113.755 8.94876C113.755 4.15768 110.101 0.592163 105.377 0.592163C100.653 0.592163 97.0207 4.15768 97.0207 8.94876H97.0192ZM75.893 4.82532V13.0707H71.0347C71.7253 11.5783 72.0605 8.70333 72.0605 5.00374V4.82532H75.8945H75.893ZM79.9934 13.0707V0.926011H68.2039V2.1516C68.2039 7.65606 67.9371 11.8237 66.6888 13.0722H65.0181V19.5127H69.1185V16.9715H78.2328V19.5127H82.3333V13.0722H79.9934V13.0707ZM88.1046 13.0707V10.7079H94.8347V7.03109H88.1046V4.82532H95.458V0.926011H84.0039V16.9715H95.7036V13.0722H88.1046V13.0707ZM59.4022 0.926011L53.5411 10.0403V0.926011H49.4405V16.9715H53.5411L59.4022 7.85727V16.9715H63.5028V0.926011H59.4022Z" fill="white"/>
<path d="M2.11306 30.0304H0.896484V24.075H4.68236V25.2492H2.11306V30.0304ZM4.11467 30.141C3.95302 30.141 3.8169 30.1156 3.73182 30.0899V29.052H3.89347C4.25079 29.052 4.44645 28.8564 4.48901 28.3375L4.71018 25.6916H7.9856V30.0304H6.82857V26.7636H5.73111L5.57797 28.5926C5.49289 29.6051 4.98244 30.141 4.11467 30.141ZM10.688 25.5809C11.8279 25.5809 12.5 26.3297 12.5 27.4357V30.0304H11.6323L11.4451 29.6051H11.4026C11.2239 29.7922 10.8411 30.141 10.169 30.141C9.34377 30.141 8.7057 29.5711 8.7057 28.8478C8.7057 27.9546 9.55644 27.4017 10.7901 27.4017H11.343V27.3165C11.343 26.8655 11.0879 26.6104 10.6794 26.6104C10.2881 26.6104 10.1009 26.8741 10.0669 27.0528H8.90986C8.96944 26.321 9.54795 25.5809 10.688 25.5809ZM10.4413 29.1968C10.9942 29.1968 11.343 28.8054 11.343 28.3969V28.1757H10.756C10.1009 28.1757 9.86271 28.4141 9.86271 28.7372C9.86271 29.001 10.0584 29.1968 10.4413 29.1968ZM16.4507 27.759C16.7909 27.8949 17.1313 28.227 17.1313 28.7798C17.1313 29.4689 16.5613 30.0304 15.7531 30.0304H13.4646V25.6916H15.5914C16.3911 25.6916 16.9611 26.2361 16.9611 26.8655C16.9611 27.3165 16.6889 27.6398 16.4507 27.759ZM15.3617 26.5508H14.5791V27.4357H15.3617C15.651 27.4357 15.8466 27.2738 15.8466 26.9761C15.8466 26.721 15.651 26.5508 15.3617 26.5508ZM14.5791 29.1712H15.5148C15.8126 29.1712 16.0168 28.9926 16.0168 28.6862C16.0168 28.4141 15.8126 28.2097 15.5148 28.2097H14.5791V29.1712ZM20.7254 27.3421V25.6916H21.8824V30.0304H20.7254V28.4141H19.0664V30.0304H17.9094V25.6916H19.0664V27.3421H20.7254ZM24.043 27.0104H24.8598C25.7359 27.0104 26.3997 27.6482 26.3997 28.516C26.3997 29.4009 25.7359 30.0304 24.8598 30.0304H22.886V25.6916H24.043V27.0104ZM26.723 30.0304V25.6916H27.88V30.0304H26.723ZM24.043 29.0691H24.647C25.0215 29.0691 25.2426 28.8478 25.2426 28.516C25.2426 28.1927 25.0215 27.9715 24.647 27.9715H24.043V29.0691ZM30.9434 25.1214C30.1521 25.1214 29.5905 24.5856 29.5226 23.8625H30.3393C30.3732 24.1006 30.5264 24.3814 30.9434 24.3814C31.3602 24.3814 31.5133 24.1006 31.5475 23.8625H32.3641C32.2961 24.5856 31.7346 25.1214 30.9434 25.1214ZM29.9989 28.4225L31.8706 25.6916H32.8916V30.0304H31.777V27.2994L29.9053 30.0304H28.8845V25.6916H29.9989V28.4225ZM37.7478 25.5809C38.9474 25.5809 39.9682 26.6274 39.9682 27.861C39.9682 29.0946 38.9474 30.141 37.7478 30.141C36.6248 30.141 35.8592 29.2647 35.6803 28.4821H36.8376C36.8886 28.7202 37.1777 29.1115 37.7478 29.1115C38.2414 29.1115 38.6411 28.7798 38.7773 28.2523H37.501V27.4696H38.7773C38.6411 26.9421 38.2414 26.6104 37.7478 26.6104C37.1777 26.6104 36.8886 27.0697 36.8376 27.2399H35.6803C35.8592 26.4573 36.6248 25.5809 37.7478 25.5809ZM42.9777 27.7334L44.7048 30.0304H43.284L41.8973 28.0907V30.0304H40.7403V25.6916H41.8973V27.4783L43.1988 25.6916H44.5176L42.9777 27.7334ZM46.9267 30.141C45.7271 30.141 44.7063 29.0946 44.7063 27.861C44.7063 26.6274 45.7271 25.5809 46.9267 25.5809C48.058 25.5809 48.8239 26.4829 48.9939 27.325H47.8369C47.7858 27.1379 47.4965 26.653 46.9267 26.653C46.3226 26.653 45.8632 27.155 45.8632 27.861C45.8632 28.567 46.3226 29.0691 46.9267 29.0691C47.4965 29.0691 47.7858 28.5757 47.8369 28.3969H48.9939C48.8239 29.2391 48.058 30.141 46.9267 30.141ZM50.8867 30.0304H49.7297V25.6916H53.6602V30.0304H52.5032V26.7636H50.8867V30.0304ZM58.7738 27.793C58.7738 28.0225 58.7485 28.1927 58.7229 28.2779H55.6006C55.7281 28.8054 56.1195 29.1115 56.6384 29.1115C57.0893 29.1115 57.3277 28.882 57.4127 28.7884H58.6293C58.3995 29.3753 57.6765 30.141 56.6554 30.141C55.4305 30.141 54.435 29.1202 54.435 27.861C54.435 26.6274 55.4561 25.5809 56.6384 25.5809C57.8209 25.5809 58.7738 26.5338 58.7738 27.793ZM56.6384 26.6104C56.1365 26.6104 55.7368 26.9338 55.6006 27.4527H57.6594C57.5233 26.9507 57.1319 26.6104 56.6384 26.6104ZM60.7071 31.5617H59.5498V25.6916H60.4177L60.6049 26.1169H60.6474C60.7664 25.9723 61.2003 25.5809 61.881 25.5809C62.9444 25.5809 63.8889 26.5508 63.8889 27.861C63.8889 29.1712 62.9444 30.141 61.881 30.141C61.2599 30.141 60.8346 29.7836 60.7494 29.6561H60.7071V31.5617ZM61.7192 29.0691C62.2554 29.0691 62.7317 28.5757 62.7317 27.861C62.7317 27.1463 62.2554 26.653 61.7192 26.653C61.1834 26.653 60.7071 27.1463 60.7071 27.861C60.7071 28.5757 61.1834 29.0691 61.7192 29.0691ZM66.5181 30.0304H65.3611V26.7636H64.0935V25.6916H67.7857V26.7636H66.5181V30.0304ZM71.4327 30.0304H70.2757V25.6916H74.2062V30.0304H73.0492V26.7636H71.4327V30.0304ZM77.2016 30.141C76.002 30.141 74.9812 29.0946 74.9812 27.861C74.9812 26.6274 76.002 25.5809 77.2016 25.5809C78.4012 25.5809 79.422 26.6274 79.422 27.861C79.422 29.0946 78.4012 30.141 77.2016 30.141ZM77.2016 29.0691C77.8057 29.0691 78.265 28.567 78.265 27.861C78.265 27.155 77.8057 26.653 77.2016 26.653C76.5975 26.653 76.1382 27.155 76.1382 27.861C76.1382 28.567 76.5975 29.0691 77.2016 29.0691ZM84.364 30.0304H83.2069V26.7636H81.9394V25.6916H85.6318V26.7636H84.364V30.0304ZM90.1787 27.793C90.1787 28.0225 90.1533 28.1927 90.1277 28.2779H87.0054C87.133 28.8054 87.5243 29.1115 88.0432 29.1115C88.4942 29.1115 88.7326 28.882 88.8175 28.7884H90.0341C89.8044 29.3753 89.0813 30.141 88.0603 30.141C86.8353 30.141 85.8399 29.1202 85.8399 27.861C85.8399 26.6274 86.8609 25.5809 88.0432 25.5809C89.2259 25.5809 90.1787 26.5338 90.1787 27.793ZM88.0432 26.6104C87.5413 26.6104 87.1417 26.9338 87.0054 27.4527H89.0643C88.928 26.9507 88.5368 26.6104 88.0432 26.6104ZM93.1622 27.8183L94.6086 30.0304H93.2812L92.422 28.6267L91.5627 30.0304H90.2868L91.7329 27.8183L90.3804 25.6916H91.6902L92.4732 26.9931L93.2472 25.6916H94.5064L93.1622 27.8183ZM97.9248 27.3421V25.6916H99.0817V30.0304H97.9248V28.4141H96.2658V30.0304H95.1088V25.6916H96.2658V27.3421H97.9248ZM101.199 28.4225L103.072 25.6916H104.092V30.0304H102.978V27.2994L101.106 30.0304H100.085V25.6916H101.199V28.4225ZM107.333 27.7334L109.06 30.0304H107.639L106.253 28.0907V30.0304H105.096V25.6916H106.253V27.4783L107.554 25.6916H108.873L107.333 27.7334ZM113.4 27.793C113.4 28.0225 113.375 28.1927 113.349 28.2779H110.226C110.354 28.8054 110.745 29.1115 111.265 29.1115C111.716 29.1115 111.953 28.882 112.039 28.7884H113.256C113.026 29.3753 112.302 30.141 111.281 30.141C110.057 30.141 109.061 29.1202 109.061 27.861C109.061 26.6274 110.082 25.5809 111.265 25.5809C112.447 25.5809 113.4 26.5338 113.4 27.793ZM111.265 26.6104C110.763 26.6104 110.363 26.9338 110.226 27.4527H112.285C112.149 26.9507 111.758 26.6104 111.265 26.6104Z" fill="white"/>
</g>
</svg>
