<svg width="61" height="32" viewBox="0 0 61 32" fill="none" xmlns="http://www.w3.org/2000/svg">
<g clip-path="url(#clip0_156_324)">
<path d="M50.4961 7.65892C48.3504 7.75136 46.3556 8.50479 44.7497 9.70656L44.7452 9.60488C44.7955 6.78061 46.9092 4.43705 49.5582 3.98407C49.5994 3.97945 49.7 3.96096 49.8007 3.95172C49.9059 3.9471 50.0111 3.95172 50.0111 3.95172H57.368V0.184448H50.6059C50.6059 0.184448 50.3863 0.184448 50.3543 0.184448C45.2484 0.263026 41.0896 4.45092 40.9889 9.60488H40.9844V9.74354C40.9844 9.76203 40.9844 9.78061 40.9844 9.79448V10.1458C40.9844 10.1458 40.9844 10.1458 40.9889 10.1458L41.021 17.3151C41.0484 22.6031 45.3491 26.9019 50.583 26.8788C55.817 26.8511 60.0766 22.506 60.0536 17.2227C60.0308 11.9299 55.7302 7.63119 50.4961 7.65892ZM50.5602 23.1486C47.4582 23.1625 44.8 20.5739 44.7863 17.3752C44.7726 14.1764 47.3347 11.5602 50.5053 11.5417C53.6758 11.5278 56.2654 14.1163 56.2791 17.3151C56.2974 20.5184 53.7308 23.1347 50.5602 23.1486Z" fill="white"/>
<path d="M28.961 7.68677C23.727 7.68677 19.4492 12.0087 19.4492 17.2967V31.8157H23.2055V24.8913C24.8205 26.0839 26.8153 26.8281 28.961 26.9067C34.195 26.9067 38.4728 22.5847 38.4728 17.2967C38.4728 12.0087 34.195 7.68677 28.961 7.68677ZM28.9519 23.0239C25.7812 23.0239 23.2055 20.4168 23.2055 17.2181C23.2055 14.0194 25.8545 11.417 28.9519 11.4124C32.1225 11.4124 34.6983 14.0194 34.6983 17.2181C34.6983 20.4214 32.1178 23.0239 28.9519 23.0239Z" fill="white"/>
<path d="M13.1645 15.4385H4.31157V7.69128H0.550781V26.9205H4.31157V19.238H13.1645V26.9205H16.9253V7.69128H13.1645V15.4385Z" fill="white"/>
</g>
<defs>
<clipPath id="clip0_156_324">
<rect width="61" height="32" fill="white"/>
</clipPath>
</defs>
</svg>
