<svg width="139" height="32" viewBox="0 0 139 32" fill="none" xmlns="http://www.w3.org/2000/svg">
<path d="M78.5581 0L61.2812 2.257V7.36963L78.5581 5.82783V0Z" fill="#A9A9A9"/>
<path d="M25.7706 18.6198C25.7706 21.7225 26.6964 22.7962 29.667 22.7962C32.6376 22.7962 33.5478 21.7173 33.5478 18.6198C33.5478 15.5223 32.6515 14.4434 29.667 14.4434C26.6821 14.4434 25.7706 15.5014 25.7706 18.6198ZM20.5508 18.5745C20.5508 12.8894 23.7099 10.2878 29.667 10.2878C35.624 10.2878 38.7971 12.8894 38.7971 18.5745C38.7971 24.2597 35.6589 26.9517 29.667 26.9517C23.6751 26.9517 20.5508 24.2597 20.5508 18.5745Z" fill="white"/>
<path d="M75.2872 11.7165L61.281 2.26221V7.36264L65.6479 10.3209L66.5075 10.8221C64.9385 10.8412 64.187 11.1597 63.4323 11.6156C61.2756 12.9155 60.1562 15.2021 60.1562 18.5763C60.1562 24.2614 63.2945 26.9535 69.2725 26.9535C75.2507 26.9535 78.4045 24.2614 78.4045 18.5763C78.4045 15.2857 77.3374 13.0356 75.2872 11.7165ZM69.2725 22.7962C66.3088 22.7962 65.3761 21.7173 65.3761 18.6198C65.3761 15.5223 66.3018 14.4434 69.2725 14.4434C72.2434 14.4434 73.1533 15.5014 73.1533 18.6198C73.1533 21.7382 72.2589 22.7962 69.2725 22.7962Z" fill="white"/>
<path d="M11.5621 10.267C8.74098 10.267 6.4487 12.0071 5.88031 12.7276V10.6394H0.875V32H5.84894V24.4024C6.43286 25.1385 8.70961 26.8473 11.5462 26.8473C16.2534 26.8473 18.8457 24.2928 18.8457 18.545C18.8457 12.7972 16.2569 10.267 11.5621 10.267ZM9.78018 22.7092C6.81654 22.7092 5.8838 21.632 5.8838 18.5328C5.8838 15.4335 6.80957 14.3564 9.78018 14.3564C12.7508 14.3564 13.6592 15.4179 13.6592 18.5328C13.6592 21.6477 12.7647 22.7022 9.78018 22.7022V22.7092Z" fill="white"/>
<path d="M112.631 10.6464V16.4463H106.027V10.6464H101.021V26.3427H106.027V20.4627H112.631V26.3427H117.638V10.6464H112.631Z" fill="white"/>
<path d="M80.127 18.545C80.127 24.2875 82.7161 26.8473 87.4267 26.8473C90.2614 26.8473 92.5382 25.1385 93.1221 24.4024V26.3444H98.098V10.6289H93.0926V12.7171C92.5208 12.0071 90.2282 10.267 87.4093 10.267C82.7142 10.267 80.127 12.8128 80.127 18.545ZM85.3119 18.5223C85.3119 15.4039 86.2063 14.3459 89.1928 14.3459C92.1792 14.3459 93.0873 15.4074 93.0873 18.5223C93.0873 21.6372 92.1618 22.6987 89.1928 22.6987C86.2237 22.6987 85.31 21.6251 85.31 18.5223H85.3119Z" fill="white"/>
<path d="M53.3213 20.5427C52.9307 22.1837 51.8848 22.7962 49.6182 22.7962C46.6546 22.7962 45.7234 21.7173 45.7234 18.6198C45.7234 15.5223 46.6546 14.4434 49.6182 14.4434C51.8848 14.4434 52.9307 15.0542 53.3229 16.7056L58.5427 16.3106C57.7633 12.2038 54.7072 10.2948 49.6182 10.2948C43.6611 10.2948 40.5039 12.8964 40.5039 18.5815C40.5039 24.2666 43.6418 26.9587 49.6182 26.9587C54.7037 26.9587 57.7285 25.0097 58.5269 20.9429L53.3213 20.5427Z" fill="white"/>
<path d="M138.824 26.341L130.902 18.0995L138.398 10.6464H132.206L125.489 17.4644V10.6464H120.572V26.341H125.489V20.8525V19.4934V19.114L132.389 26.341H138.824Z" fill="white"/>
</svg>
