<svg width="127" height="32" viewBox="0 0 127 32" fill="none" xmlns="http://www.w3.org/2000/svg">
<path d="M99.4867 23.04L103.857 28.0083H101.018L97.6377 24.1792V28.0083H95.2844V18.7436H97.6377V22.1056L100.962 18.7436H103.745L99.4867 23.04ZM29.0694 21.248C30.7878 21.248 31.5718 20.4262 31.5718 19.1936C31.5718 17.9609 30.7878 17.1392 29.0694 17.1392H25.6691V21.248H29.0681M29.143 14.935C32.0934 14.935 34.0364 16.448 34.0364 19.1936C34.0364 21.9392 32.0934 23.4515 29.143 23.4515H25.6691V28.0083H23.2051V14.9337H29.1443M39.6019 26.0646C40.9843 26.0646 42.2726 25.0752 42.2726 23.3766C42.2726 21.678 40.9843 20.6886 39.6019 20.6886C38.2195 20.6886 36.9331 21.6761 36.9331 23.3753C36.9331 25.0745 38.222 26.0633 39.6038 26.0633M39.6038 18.4812C42.144 18.4812 44.6649 20.1248 44.6649 23.374C44.6649 26.6233 42.142 28.2688 39.6019 28.2688C37.0617 28.2688 34.5408 26.624 34.5408 23.3753C34.5408 20.1267 37.0611 18.4825 39.6019 18.4825M50.6739 26.0652C49.2544 26.0652 48.2086 25.0412 48.2086 23.3772C48.2086 21.7337 49.2921 20.6892 50.6739 20.6892C51.5142 20.6892 52.2425 21.0816 52.8217 21.9596L54.8364 20.8C54.1638 19.3619 52.7071 18.4844 50.6899 18.4844C48.0563 18.4844 45.8156 20.4268 45.8156 23.3772C45.8156 26.3276 47.9449 28.2688 50.6931 28.2688C52.6726 28.2688 53.9987 27.3728 54.9331 25.7849L52.99 24.7206C52.43 25.5046 51.8323 26.0646 50.6745 26.0646M75.7305 23.9916C75.6185 25.4105 75.3375 25.728 74.8524 25.728C74.6106 25.7326 74.3695 25.7003 74.1375 25.632L74.1491 28.0294C74.1491 28.0294 74.4415 28.119 74.9811 28.119C76.9791 28.119 77.726 26.83 77.9129 24.087L78.1375 20.8556H80.7891V27.9884H83.1411V18.7436H76.1196L75.7305 23.9916ZM71.3868 22.144C71.1628 20.9862 70.2854 20.2764 68.9779 20.2764C67.7452 20.2764 66.8115 21.0982 66.4748 22.144H71.3868ZM69.0521 18.4838C71.7043 18.4838 73.5724 20.4076 73.5724 23.1155V23.936H66.4371C66.5862 25.3555 67.5948 26.2515 68.9772 26.2515C70.2284 26.2515 70.7513 25.71 71.3299 24.9817L73.198 25.9155C72.2643 27.5027 70.9753 28.2688 68.9395 28.2688C66.3628 28.2688 64.1772 26.3078 64.1772 23.3753C64.1772 20.4428 66.3628 18.4825 69.0515 18.4825M91.6678 22.144C91.4438 20.9862 90.5663 20.2764 89.2588 20.2764C88.0262 20.2764 87.0924 21.0982 86.7558 22.144H91.6678ZM89.3337 18.4838C91.9859 18.4838 93.8534 20.4076 93.8534 23.1155V23.936H86.7187C86.8684 25.3555 87.8771 26.2515 89.2588 26.2515C90.51 26.2515 91.0329 25.71 91.6121 24.9817L93.4796 25.9155C92.5459 27.5027 91.2569 28.2688 89.2217 28.2688C86.6438 28.2688 84.4588 26.3078 84.4588 23.3753C84.4588 20.4428 86.6438 18.4825 89.3337 18.4825M55.6614 20.8H58.4255V28.0076H60.7788V20.8H63.543V18.7443H55.6614V20.8ZM108.529 26.0672C109.911 26.0672 111.2 25.0771 111.2 23.3792C111.2 21.6812 109.911 20.6912 108.529 20.6912C107.147 20.6912 105.858 21.6812 105.858 23.3792C105.858 25.0771 107.147 26.0672 108.529 26.0672ZM108.529 18.4844C111.069 18.4844 113.59 20.128 113.59 23.3779C113.59 26.6278 111.069 28.2707 108.529 28.2707C105.99 28.2707 103.468 26.6272 103.468 23.3779C103.468 20.1286 105.989 18.4844 108.529 18.4844ZM122.954 18.7443L120.4 25.232L117.846 18.7443H114.77V27.9891H117.01V22.135L119.49 27.9891H121.316L123.796 22.135V27.9891H126.036V18.7424L122.954 18.7443Z" fill="white"/>
<path d="M15.6662 32H2.61021C1.66941 32 1.11133 31.1571 1.11133 30.4205C1.11121 30.213 1.15202 30.0076 1.23143 29.816C1.31083 29.6243 1.42726 29.4502 1.57405 29.3037L7.27005 23.6077L15.6662 32Z" fill="#A9A9A9"/>
<path d="M2.60877 32C1.62317 32 0.388607 31.2115 0.388607 29.6442V12.0909C0.388607 9.71904 0.267648 8.05056 1.96173 6.35648L8.31948 0L19.5886 11.289L1.57325 29.3037C1.42646 29.4502 1.31003 29.6243 1.23062 29.816C1.15122 30.0076 1.11041 30.213 1.11053 30.4205C1.11053 31.1571 1.66861 32 2.60877 32Z" fill="white"/>
</svg>
