<svg width="120" height="32" viewBox="0 0 120 32" fill="none" xmlns="http://www.w3.org/2000/svg">
<g clip-path="url(#clip0_156_278)">
<path d="M3.8273 16C3.8273 15.7935 3.83278 15.5892 3.84375 15.3848L0.0208366 15.2006C0.00767679 15.4653 0 15.7321 0 16C0 20.4185 1.85443 24.4187 4.85376 27.3136L7.56467 24.6962C5.25623 22.4684 3.8273 19.3925 3.8273 16Z" fill="white"/>
<path d="M16.5712 3.69638C16.785 3.69638 16.9967 3.70379 17.2083 3.71332L17.3992 0.0201181C17.125 0.00741208 16.8486 0 16.5712 0C11.9949 0 7.85175 1.79048 4.85352 4.68638L7.56443 7.30382C9.87177 5.07603 13.0586 3.69638 16.5712 3.69638Z" fill="white"/>
<path d="M16.5702 28.3047C16.3563 28.3047 16.1447 28.2994 15.933 28.2888L15.7422 31.9799C16.0163 31.9926 16.2927 32 16.5702 32C21.1465 32 25.2896 30.2095 28.2878 27.3136L25.5769 24.6962C23.2696 26.9239 20.0838 28.3047 16.5702 28.3047Z" fill="white"/>
<path d="M23.7544 5.84369L26.9775 3.55026C24.1328 1.33095 20.5128 0 16.5703 0V3.69638C19.2341 3.69638 21.7081 4.48944 23.7544 5.84369Z" fill="white"/>
<path d="M33.1416 16C33.1416 15.0216 33.0506 14.0634 32.8762 13.1337L29.3088 15.6717C29.3121 15.7808 29.3132 15.8899 29.3132 16C29.3132 19.6127 27.6924 22.8665 25.1152 25.1197L27.6869 27.8642C31.0371 24.9376 33.1416 20.7065 33.1416 16Z" fill="white"/>
<path d="M16.5711 28.3047C12.8294 28.3047 9.45937 26.7397 7.12571 24.2515L4.2832 26.7344C7.31543 29.9681 11.6976 32 16.5711 32V28.3047Z" fill="white"/>
<path d="M8.02526 6.88023L5.45362 4.13574C2.10447 7.06341 0 11.2945 0 15.9999H3.82839C3.8273 12.3872 5.44814 9.13342 8.02526 6.88023Z" fill="white"/>
<path d="M29.6833 6.21851C30.4663 7.19475 31.1353 8.26099 31.6694 9.39924L16.5696 20.1432L10.2617 16.3251V11.7318L16.5696 15.55L29.6833 6.21851Z" fill="white"/>
</g>
<path d="M94.9434 9.53186L99.3643 6.37463L84.5742 6.37463V25.3436L99.3643 25.3436V22.1838H88.7943V17.3275H97.8105V14.1703L88.7943 14.1703V9.53186L94.9434 9.53186Z" fill="white"/>
<path d="M73.4118 13.768L68.2748 13.768V9.53442L76.4744 9.53442L80.8927 6.3772L64.0547 6.3772V25.3462H72.8674C77.8089 25.3462 80.6443 23.1756 80.6443 19.3879C80.6443 15.7643 78.0758 13.768 73.4118 13.768ZM72.6772 22.1864H68.2748V16.9278H72.6772C75.3566 16.9278 76.6039 17.8068 76.6039 19.5571C76.6039 21.3433 75.2827 22.1864 72.6772 22.1864Z" fill="white"/>
<path d="M111.345 6.37463L103.293 6.37463V25.3436H107.513V19.9697H111.345C116.484 19.9697 119.674 17.3506 119.674 13.1632C119.674 8.97576 116.482 6.37463 111.345 6.37463ZM111.252 16.8124H107.51V9.53442L111.252 9.53442C113.955 9.53442 115.446 10.8286 115.446 13.1734C115.446 15.5183 113.958 16.8124 111.252 16.8124Z" fill="white"/>
<path d="M56.8115 21.2356C55.7281 21.8147 54.4703 22.1197 53.1675 22.1197C49.3623 22.1197 46.6009 19.4852 46.6009 15.8565C46.6009 12.2277 49.3623 9.59329 53.1675 9.59329C54.6077 9.59329 55.8972 9.98538 57.0071 10.7567L60.0354 8.59384L59.8346 8.4247C58.0667 6.91784 55.7043 6.12341 53.0063 6.12341C50.0785 6.12341 47.4201 7.08186 45.5201 8.81936C43.6123 10.5697 42.5605 13.0298 42.5605 15.7514C42.5605 18.4832 43.607 20.9819 45.5096 22.786C47.4175 24.5952 50.0705 25.5896 52.9773 25.5896C56.0188 25.5896 58.6771 24.5619 60.4767 22.6886C59.0867 21.6943 57.7443 20.7358 57.7443 20.7358L56.8115 21.2356Z" fill="white"/>
<defs>
<clipPath id="clip0_156_278">
<rect width="33.1429" height="32" fill="white"/>
</clipPath>
</defs>
</svg>
