<svg width="42" height="32" viewBox="0 0 42 32" fill="none" xmlns="http://www.w3.org/2000/svg">
<g clip-path="url(#clip0_156_287)">
<path d="M5.63147 7.75757H-0.761719V14.266H5.63147V7.75757Z" fill="#A9A9A9"/>
<path d="M24.1174 25.4915H41.4855V31.9999H24.1174V25.4915ZM31.946 10.637C33.9164 10.637 35.5125 12.2619 35.5125 14.2678C35.5125 16.2737 33.9164 17.8986 31.946 17.8986H24.1174V24.407H31.946C36.1814 24.407 39.8084 21.7019 41.2451 17.8986C41.6723 16.7703 41.9057 15.5466 41.9057 14.2678C41.9057 8.67726 37.4381 4.12854 31.946 4.12854C26.4539 4.12854 21.9863 8.67665 21.9863 14.2678H28.3795C28.3795 12.2619 29.9756 10.637 31.946 10.637Z" fill="white"/>
<path d="M13.0924 25.4916H23.0521V32H16.6589C11.1587 32 6.69922 27.4601 6.69922 21.8607V0H13.0924V7.75939H20.5514V14.2679H13.0924V25.4916Z" fill="white"/>
</g>
<defs>
<clipPath id="clip0_156_287">
<rect width="42" height="32" fill="white"/>
</clipPath>
</defs>
</svg>
