<svg width="65" height="32" viewBox="0 0 65 32" fill="none" xmlns="http://www.w3.org/2000/svg">
<g clip-path="url(#clip0_1193_7248)">
<path d="M25.7816 22.8452C7.72939 29.8226 -6.48974 12.5217 14.1085 0H28.6129C21.399 1.72522 12.5642 6.61565 9.96243 12.3478C7.36069 18.08 11.3537 25.4678 25.7816 22.8452Z" fill="white"/>
<path d="M10.678 12.6754C9.95055 14.1406 9.8165 15.83 10.3038 17.3916C10.791 18.9532 11.862 20.2665 13.2936 21.058H14.0728V8.265C12.6602 9.49577 11.5063 10.9949 10.678 12.6754ZM0.917969 1.31543V5.56586H6.3371C7.62306 3.96718 9.10748 2.53887 10.7545 1.31543H0.917969ZM3.15797 13.712C3.20701 11.2989 3.95623 8.95219 5.31449 6.95717H0.917969V21.058H6.31623C5.33267 20.1013 4.54745 18.9601 4.00552 17.6995C3.46358 16.439 3.17557 15.0839 3.15797 13.712ZM26.8101 1.31543C22.7283 2.56083 18.8955 4.51017 15.4849 7.07543V14.032H21.1406V5.56586H36.2571V1.31543H26.8101Z" fill="white"/>
<path d="M62.9005 19.2907C62.8319 19.4141 62.7307 19.5163 62.6081 19.5862C62.4854 19.6561 62.346 19.691 62.2049 19.6872H61.3422V17.5029C61.3422 17.4438 61.3657 17.3872 61.4074 17.3455C61.4492 17.3037 61.5058 17.2803 61.5649 17.2803H62.2605C62.4088 17.2704 62.5564 17.3083 62.6816 17.3885C62.8067 17.4686 62.903 17.5867 62.9562 17.7255C63.0273 17.9692 63.0555 18.2234 63.0396 18.4768C63.0633 18.753 63.0253 19.031 62.9283 19.2907M64.4379 16.4316C64.2387 16.2466 64.0041 16.1038 63.7483 16.0117C63.4924 15.9197 63.2206 15.8803 62.9492 15.8959H60.424C60.1724 15.8922 59.9295 15.9881 59.7484 16.1627C59.5673 16.3374 59.4625 16.5765 59.457 16.8281V22.9568H61.3701V21.0785H62.7614C63.0936 21.1188 63.4307 21.0764 63.7426 20.9551C64.0545 20.8337 64.3316 20.6371 64.5492 20.3829C64.8642 19.7541 65.0081 19.0536 64.9666 18.3516C65.0201 17.6717 64.822 16.9959 64.4101 16.4524" fill="white"/>
<path d="M55.3747 17.2385C55.5967 17.1561 55.8346 17.1252 56.0703 17.148C56.2405 17.1471 56.4104 17.161 56.5781 17.1898C56.8633 17.2454 56.926 17.3985 56.926 17.5376C56.926 17.6767 56.926 17.8089 56.6129 17.8089H55.2216C55.2216 17.5446 55.2216 17.3428 55.4303 17.2385M55.2494 19.4785C55.1794 19.3487 55.1503 19.2008 55.166 19.0541H57.9903C58.1699 19.0723 58.3495 19.0199 58.4912 18.908C58.6124 18.7849 58.7037 18.6355 58.758 18.4715C58.8122 18.3074 58.8281 18.1331 58.8042 17.962C58.8409 17.6502 58.8102 17.3342 58.7142 17.0354C58.6182 16.7365 58.4591 16.4618 58.2477 16.2298C57.8442 15.8889 57.1555 15.875 56.112 15.875C55.0686 15.875 54.1503 15.875 53.6703 16.3828C53.1903 16.8907 53.2529 17.635 53.2529 18.5741C53.18 19.2057 53.2711 19.8454 53.5173 20.4315C53.9277 21.1272 54.5747 21.1272 55.3468 21.1272H58.6234V19.7359H56.112C55.7712 19.7359 55.4164 19.7359 55.2494 19.4924" fill="white"/>
<path d="M52.627 21.0712V15.8955H50.714V17.7112H49.0166V15.8955H47.1035V21.0712H49.0166V19.0955H50.714V21.0712H52.627Z" fill="white"/>
<path d="M36.4391 17.2385C36.6614 17.1572 36.899 17.1264 37.1347 17.148C37.3026 17.1471 37.4702 17.1611 37.6356 17.1898C37.9208 17.2454 37.9904 17.3985 37.9904 17.5376C37.9904 17.6767 37.9487 17.8089 37.6774 17.8089H36.286C36.286 17.5446 36.286 17.3428 36.4878 17.2385M36.3278 19.4785C36.2554 19.3495 36.2238 19.2015 36.2374 19.0541H39.0547C39.2366 19.0741 39.4191 19.0216 39.5626 18.908C39.6838 18.7849 39.7751 18.6355 39.8293 18.4715C39.8836 18.3074 39.8995 18.1331 39.8756 17.962C39.9123 17.6502 39.8816 17.3342 39.7856 17.0354C39.6896 16.7365 39.5305 16.4618 39.3191 16.2298C38.9087 15.8889 38.2269 15.875 37.1834 15.875C36.14 15.875 35.2147 15.875 34.7417 16.3828C34.2687 16.8907 34.3243 17.635 34.3243 18.5741C34.2538 19.205 34.3423 19.8436 34.5817 20.4315C34.9991 21.1272 35.646 21.1272 36.4182 21.1272H39.6878V19.7359H37.1834C36.8426 19.7359 36.4878 19.7359 36.3278 19.4924" fill="white"/>
<path d="M31.9524 21.0712V17.259H33.8863V15.8955H28.1055V17.259H30.0394V21.0712H31.9524Z" fill="white"/>
<path d="M27.5832 21.0712V15.8955H25.6632V17.7112H23.9658V15.8955H22.0527V21.0712H23.9658V19.0955H25.6632V21.0712H27.5832Z" fill="white"/>
<path d="M19.1585 19.388C19.0595 19.5134 18.9305 19.6116 18.7833 19.6737C18.6361 19.7357 18.4756 19.7595 18.3168 19.7428C18.157 19.7587 17.9957 19.7347 17.8475 19.6727C17.6993 19.6108 17.5689 19.5129 17.4681 19.388C17.3107 19.1142 17.2449 18.7974 17.2802 18.4836C17.246 18.161 17.3116 17.8357 17.4681 17.5515C17.574 17.4343 17.7061 17.3437 17.8535 17.2869C18.0009 17.2301 18.1596 17.2087 18.3168 17.2245C18.474 17.2076 18.6331 17.2284 18.7807 17.2853C18.9283 17.3422 19.0602 17.4334 19.1655 17.5515C19.3312 17.8327 19.4064 18.1581 19.3811 18.4836C19.4083 18.7978 19.3405 19.1129 19.1863 19.388M20.6542 16.3619C19.9659 15.9307 19.1514 15.7467 18.3446 15.8401C17.5378 15.7467 16.7233 15.9307 16.035 16.3619C15.784 16.6516 15.5932 16.9885 15.4738 17.3528C15.3543 17.7171 15.3086 18.1015 15.3394 18.4836C15.3118 18.8602 15.359 19.2385 15.4784 19.5967C15.5978 19.9549 15.787 20.2859 16.035 20.5706C16.7205 21.0092 17.5361 21.1984 18.3446 21.1062C19.1531 21.1984 19.9687 21.0092 20.6542 20.5706C20.9022 20.2859 21.0913 19.9549 21.2107 19.5967C21.3301 19.2385 21.3774 18.8602 21.3498 18.4836C21.3805 18.1015 21.3348 17.7171 21.2154 17.3528C21.096 16.9885 20.9052 16.6516 20.6542 16.3619Z" fill="white"/>
<path d="M45.6359 12.1179V10.8101H43.7298C43.4377 10.8101 42.9438 10.8449 42.7003 10.4622C42.5727 10.1813 42.52 9.87218 42.5472 9.56485C42.5387 9.33004 42.5669 9.09534 42.6307 8.8692C42.742 8.52833 42.9646 8.23616 43.6255 8.23616H45.629V6.95616H42.742C42.4582 6.93107 42.1722 6.96578 41.9026 7.05804C41.633 7.15031 41.3858 7.29807 41.1768 7.49181C40.7156 8.09718 40.5062 8.8574 40.5925 9.61355C40.5112 10.2844 40.6769 10.9619 41.0585 11.5196C41.2593 11.7332 41.5054 11.899 41.7786 12.0049C42.0519 12.1109 42.3454 12.1542 42.6377 12.1318H45.6359" fill="white"/>
<path d="M39.8664 12.126V6.94336H37.9464V8.76597H36.2559V6.94336H34.3359V12.126H36.2559V10.1503H37.9464V12.126H39.8664Z" fill="white"/>
<path d="M31.7345 10.4348C31.7401 10.4814 31.7341 10.5285 31.7171 10.5722C31.7001 10.6159 31.6726 10.6547 31.6371 10.6853C31.5505 10.7349 31.4516 10.759 31.3519 10.7548H30.3571C30.3106 10.7593 30.2637 10.7533 30.2198 10.7373C30.176 10.7213 30.1363 10.6957 30.1036 10.6623C30.0709 10.629 30.0461 10.5887 30.031 10.5446C30.0159 10.5004 30.0108 10.4534 30.0162 10.407C30.0162 10.1913 30.1832 10.1079 30.371 10.1079H31.7623V10.4348M33.1884 7.41569C33.0149 7.25788 32.8118 7.13605 32.5909 7.05724C32.37 6.97843 32.1356 6.94421 31.9014 6.95656H28.4232V8.25048H31.0249C31.1313 8.23679 31.2394 8.24787 31.3407 8.28287C31.4421 8.31787 31.534 8.37582 31.6093 8.45221C31.6795 8.55149 31.7138 8.6717 31.7066 8.79308V8.86961H29.4666C29.1434 8.83992 28.8196 8.92086 28.5484 9.09917C28.3756 9.26633 28.2446 9.47184 28.166 9.69906C28.0875 9.92628 28.0636 10.1688 28.0962 10.407C28.049 10.9171 28.2011 11.4257 28.5206 11.8261C28.7875 12.0383 29.1278 12.1359 29.4666 12.0974H32.5136C32.6716 12.1163 32.8319 12.102 32.984 12.0552C33.1362 12.0085 33.2769 11.9305 33.3971 11.8261C33.5867 11.5941 33.6767 11.2965 33.6475 10.9983V8.84874C33.6673 8.58617 33.6345 8.32229 33.5508 8.07261C33.4672 7.82293 33.3345 7.59249 33.1606 7.39482" fill="white"/>
<path d="M25.524 10.3376C25.4554 10.461 25.3543 10.5632 25.2316 10.6331C25.109 10.703 24.9695 10.738 24.8284 10.7342H23.9727V8.54981C23.9745 8.49198 23.9988 8.43713 24.0403 8.39688C24.0819 8.35662 24.1375 8.33412 24.1953 8.33415H24.891C25.0385 8.3238 25.1854 8.36071 25.3105 8.43951C25.4356 8.51832 25.5323 8.63492 25.5866 8.77241C25.6482 9.0178 25.667 9.27195 25.6423 9.52372C25.664 9.80044 25.6236 10.0785 25.524 10.3376ZM27.0336 7.4785C26.6247 7.11652 26.0903 6.92921 25.5449 6.95676H23.0266C22.9015 6.95399 22.777 6.97591 22.6603 7.02126C22.5436 7.06661 22.437 7.13451 22.3466 7.22108C22.2561 7.30764 22.1836 7.41118 22.1332 7.52577C22.0828 7.64037 22.0554 7.76377 22.0527 7.88894V14.0176H23.9727V12.1185H25.364C25.6974 12.16 26.0358 12.1182 26.3491 11.9968C26.6623 11.8754 26.9405 11.6782 27.1588 11.4228C27.4738 10.7941 27.6177 10.0935 27.5762 9.39154C27.6297 8.71169 27.4316 8.03588 27.0197 7.49241" fill="white"/>
<path d="M43.4297 15.7013C44.6679 15.7013 45.6349 15.0056 45.6349 14.0039H44.3757C44.3757 14.4491 43.9584 14.6996 43.4297 14.6996C42.901 14.6996 42.4766 14.4491 42.4766 14.0039H41.2175C41.2175 15.0196 42.1844 15.7013 43.4297 15.7013ZM45.301 15.8404C45.13 15.8158 44.9555 15.8392 44.7971 15.908C44.6386 15.9768 44.5024 16.0883 44.4036 16.23L42.5253 18.5813C42.4905 18.63 42.4279 18.7274 42.3514 18.7274C42.2749 18.7274 42.261 18.6717 42.261 18.5813L42.3375 15.8961H40.4453V20.1743C40.4453 21.0717 41.141 21.1552 41.5375 21.1552C41.7249 21.1787 41.9151 21.1487 42.0862 21.0686C42.2573 20.9886 42.4023 20.8619 42.5044 20.703L44.3479 18.4074C44.4105 18.3309 44.4592 18.2474 44.5218 18.2474C44.5844 18.2474 44.5984 18.3309 44.5984 18.4074L44.501 21.0926H46.414V16.9187C46.414 16.6543 46.414 15.8891 45.301 15.8891" fill="white"/>
<path d="M2.68444 28.8064H1.64096V31.3038H0.945312V28.2012H2.68444V28.8064Z" fill="white"/>
<path d="M4.15919 28.2015C4.45234 28.1796 4.74295 28.269 4.97311 28.4519C5.07697 28.5493 5.1582 28.6683 5.21109 28.8005C5.26397 28.9328 5.28722 29.075 5.2792 29.2171C5.2809 29.4739 5.18662 29.722 5.01485 29.9128C4.90768 30.009 4.78222 30.0826 4.64596 30.1292C4.5097 30.1758 4.36544 30.1945 4.2218 30.1841H3.78354V31.3041H3.08789V28.2015H4.15919ZM3.78354 29.6276H4.03398C4.17411 29.6388 4.31328 29.5965 4.42354 29.5093C4.49727 29.4296 4.53933 29.3257 4.5418 29.2171C4.54408 29.1618 4.53474 29.1066 4.51437 29.055C4.494 29.0035 4.46306 28.9568 4.42354 28.918C4.31004 28.8267 4.16492 28.7841 4.02006 28.7997H3.78354V29.6276Z" fill="white"/>
<path d="M6.21211 28.2012L6.85907 29.6342L7.48515 28.2012H8.25037L6.85907 31.3038H6.06602L6.5182 30.4064L5.41211 28.2012H6.21211Z" fill="white"/>
<path d="M11.2497 28.2012V31.3038H10.554V28.8064H9.37143V31.3038H8.67578V28.2012H11.2497Z" fill="white"/>
<path d="M14.5462 28.2012V31.3038H13.8158V28.8064H12.6332V31.3038H11.9375V28.2012H14.5462Z" fill="white"/>
<path d="M17.058 30.7125H15.9032L15.6667 31.3038H14.8945L16.1537 28.2012H16.8076L18.0319 31.3038H17.2945L17.058 30.7125ZM16.8563 30.1629L16.4806 29.1264L16.0911 30.1629H16.8563Z" fill="white"/>
<path d="M20.1878 29.4951L21.2522 28.2012H22.1635L20.9044 29.669L22.2261 31.3038H21.3009L20.1878 29.9125V31.3038H19.4922V28.2012H20.1878V29.4951Z" fill="white"/>
<path d="M25.1548 28.5773C25.3088 28.7305 25.431 28.9126 25.5143 29.1132C25.5977 29.3137 25.6406 29.5288 25.6406 29.746C25.6406 29.9632 25.5977 30.1782 25.5143 30.3788C25.431 30.5794 25.3088 30.7615 25.1548 30.9147C24.9949 31.0674 24.806 31.1867 24.5994 31.2655C24.3927 31.3444 24.1724 31.3812 23.9514 31.3738C23.5032 31.3859 23.0683 31.221 22.7409 30.9147C22.5852 30.7656 22.4617 30.5863 22.378 30.3877C22.2942 30.1891 22.252 29.9754 22.254 29.7599C22.2594 29.3214 22.4309 28.9012 22.734 28.5842C23.0689 28.2907 23.4991 28.1289 23.9444 28.1289C24.3897 28.1289 24.8199 28.2907 25.1548 28.5842V28.5773ZM23.2696 29.0573C23.091 29.2448 22.9914 29.4939 22.9914 29.7529C22.9914 30.012 23.091 30.261 23.2696 30.4486C23.3618 30.5368 23.4711 30.6052 23.5907 30.6495C23.7104 30.6937 23.8379 30.713 23.9653 30.706C24.093 30.7108 24.2205 30.6899 24.34 30.6445C24.4595 30.5991 24.5686 30.5301 24.6609 30.4416C24.7517 30.3506 24.8226 30.2419 24.8693 30.1222C24.916 30.0024 24.9374 29.8744 24.9322 29.746C24.938 29.6186 24.9175 29.4915 24.8718 29.3724C24.8262 29.2534 24.7564 29.1451 24.6669 29.0543C24.5774 28.9635 24.4702 28.8922 24.3518 28.8448C24.2335 28.7975 24.1066 28.7751 23.9792 28.779C23.8482 28.7745 23.7176 28.7969 23.5956 28.8447C23.4736 28.8926 23.3626 28.9649 23.2696 29.0573Z" fill="white"/>
<path d="M26.0312 31.3038L26.5321 28.2012H27.1304L27.9026 30.0516L28.6747 28.2012H29.273L29.7739 31.3038H29.0782L28.8278 29.4464L28.0278 31.3038H27.7773L27.033 29.4464L26.7478 31.3038H26.0312Z" fill="white"/>
<path d="M32.9255 28.2012V31.3038H32.2298V28.8064H31.0472V31.3038H30.3516V28.2012H32.9255Z" fill="white"/>
<path d="M35.4356 30.7125H34.2599L34.0234 31.3038H33.293L34.5521 28.2012H35.206L36.4164 31.3038H35.6651L35.4356 30.7125ZM35.2408 30.1629L34.8582 29.1264L34.4686 30.1629H35.2408Z" fill="white"/>
<path d="M37.4671 29.3768H38.7193V28.2012H39.415V31.3038H38.7193V29.982H37.4671V31.3038H36.7715V28.2012H37.4671V29.3768Z" fill="white"/>
<path d="M40.8421 28.2013V30.2256L42.2821 28.1387H42.9152V31.3039H42.2195V29.2656L40.7795 31.3526H40.1465V28.2013H40.8421Z" fill="white"/>
<path d="M44.3128 28.2021V30.2264L45.7598 28.1394H46.3928V31.3047H45.6972V29.2664L44.2502 31.3534H43.6172V28.2021H44.3128ZM45.9198 27.3812C45.8468 27.555 45.7232 27.7029 45.565 27.8055C45.3871 27.8895 45.1935 27.9347 44.9968 27.9383C44.8002 27.9419 44.605 27.9038 44.4241 27.8264C44.266 27.7238 44.1423 27.5759 44.0694 27.4021L44.5633 27.1934C44.5959 27.2806 44.6483 27.3592 44.7163 27.4229C44.8017 27.4731 44.899 27.4995 44.9981 27.4995C45.0971 27.4995 45.1944 27.4731 45.2798 27.4229C45.3482 27.3609 45.3987 27.2816 45.4259 27.1934L45.9198 27.3812Z" fill="white"/>
<path d="M48.9385 30.9989L48.5628 31.2632L47.8672 30.2615L48.5628 29.2598L48.9315 29.5172L48.3889 30.2615L48.9385 30.9989ZM49.9124 30.9989L49.5368 31.2632L48.8411 30.2615L49.5368 29.2598L49.9054 29.5172L49.3628 30.2615L49.9124 30.9989Z" fill="white"/>
<path d="M53.0171 28.2012V30.7055H53.3719V31.9994H52.7249V31.3038H50.8188V31.9994H50.1719V30.7055C50.3045 30.6831 50.4277 30.6226 50.5267 30.5316C50.7458 30.2387 50.8407 29.8714 50.791 29.509V28.2012H53.0171ZM51.4797 29.4881C51.4856 29.7216 51.4646 29.9551 51.4171 30.1838C51.3694 30.37 51.2734 30.5404 51.1388 30.6777H52.3075V28.7925H51.4797V29.4881Z" fill="white"/>
<path d="M55.512 28.8064H54.4754V29.4046H55.4633V30.0099H54.4754V30.7055H55.512V31.3038H53.752V28.2012H55.512V28.8064Z" fill="white"/>
<path d="M58.6647 28.2012V31.3038H57.969V28.8064H57.1064V29.8707C57.1546 30.3034 57.0433 30.7387 56.7934 31.0951C56.6023 31.2642 56.3525 31.3517 56.0977 31.3386C56.003 31.3501 55.9072 31.3501 55.8125 31.3386V30.6916C55.8699 30.7027 55.929 30.7027 55.9864 30.6916C56.0814 30.6942 56.1745 30.6648 56.2508 30.6081C56.3717 30.413 56.4209 30.1817 56.3899 29.9542V28.2012H58.6647Z" fill="white"/>
<path d="M62.1002 28.5785C62.2541 28.7317 62.3763 28.9138 62.4597 29.1144C62.543 29.3149 62.5859 29.53 62.5859 29.7472C62.5859 29.9644 62.543 30.1794 62.4597 30.38C62.3763 30.5806 62.2541 30.7627 62.1002 30.9159C61.9406 31.0693 61.7519 31.189 61.5451 31.2678C61.3383 31.3467 61.1178 31.3832 60.8967 31.375C60.449 31.3842 60.0152 31.2196 59.6862 30.9159C59.5306 30.7668 59.407 30.5875 59.3233 30.3889C59.2396 30.1903 59.1973 29.9766 59.1993 29.7611C59.2044 29.3212 59.3788 28.9002 59.6862 28.5854C60.02 28.2924 60.449 28.1309 60.8932 28.1309C61.3374 28.1309 61.7664 28.2924 62.1002 28.5854V28.5785ZM60.2149 29.0585C60.0363 29.246 59.9367 29.4951 59.9367 29.7541C59.9367 30.0132 60.0363 30.2622 60.2149 30.4498C60.3495 30.5848 60.5214 30.6763 60.7085 30.7126C60.8956 30.7489 61.0893 30.7283 61.2645 30.6534C61.4398 30.5785 61.5885 30.4528 61.6916 30.2925C61.7947 30.1322 61.8473 29.9447 61.8428 29.7541C61.8471 29.6258 61.8253 29.498 61.7786 29.3784C61.732 29.2588 61.6615 29.15 61.5715 29.0585C61.3856 28.8766 61.1359 28.7748 60.8758 28.7748C60.6158 28.7748 60.366 28.8766 60.1802 29.0585H60.2149Z" fill="white"/>
<path d="M62.9073 29.5172L63.276 29.2598L63.9717 30.2615L63.276 31.2632L62.9004 30.9989L63.45 30.2615L62.9073 29.5172ZM63.8813 29.5172L64.25 29.2598L64.9456 30.2615L64.25 31.2632L63.9021 30.9989L64.4517 30.2615L63.8813 29.5172Z" fill="white"/>
</g>
<defs>
<clipPath id="clip0_1193_7248">
<rect width="64.0557" height="32" fill="white" transform="translate(0.917969)"/>
</clipPath>
</defs>
</svg>
