<svg width="89" height="32" viewBox="0 0 89 32" fill="none" xmlns="http://www.w3.org/2000/svg">
<g clip-path="url(#clip0_1193_7241)">
<mask id="mask0_1193_7241" style="mask-type:luminance" maskUnits="userSpaceOnUse" x="0" y="0" width="89" height="32">
<path d="M88.6729 0.00976562H0.207031V31.6047H88.6729V0.00976562Z" fill="white"/>
</mask>
<g mask="url(#mask0_1193_7241)">
<path fill-rule="evenodd" clip-rule="evenodd" d="M6.22935 0.00976562L4.72284 4.14309H25.5998L27.1064 0.00976562H6.22935ZM3.9691 6.20879L2.46258 10.3412H23.3396L24.8461 6.20879H3.9691ZM1.71355 12.4078L0.207031 16.5402H21.084L22.5896 12.4078H1.71355Z" fill="#A9A9A9"/>
<path fill-rule="evenodd" clip-rule="evenodd" d="M44.5884 18.1151V18.2023C45.5423 18.5531 46.4537 19.1664 46.9313 19.5603C48.4065 20.787 49.0579 22.4076 49.0579 24.5102C49.0579 27.9718 47.2351 30.4683 44.2409 31.257C43.3295 31.5196 42.3755 31.6078 40.5955 31.6078H31.5273V6.28809H39.555C41.2041 6.28809 42.3318 6.3753 43.3295 6.63786C46.2374 7.4266 48.1465 9.44203 48.1465 12.6391C48.1465 14.3478 47.5389 15.794 46.5412 16.7571C46.1074 17.1951 45.4998 17.7212 44.5884 18.1151ZM36.5607 20.787V27.4456H40.0325C41.0729 27.4456 42.028 27.3584 42.7231 26.701C43.417 26.0436 43.7208 25.2117 43.7208 24.1163C43.7208 23.2845 43.5032 22.4958 43.0694 21.9265C42.3318 21.0065 41.4204 20.787 39.8588 20.787H36.5607ZM36.5171 16.4064H39.3376C40.2053 16.4064 40.6391 16.4064 41.0729 16.2751C42.2455 15.9243 42.9831 14.874 42.9831 13.4278C42.9831 11.72 42.2018 10.9744 41.0729 10.6246C40.5955 10.4933 40.1189 10.4493 39.1638 10.4493H36.5171V16.4064ZM56.6079 31.6078V10.5365H49.3617V6.28809H69.4962L68.0647 10.5365H61.6416V31.6078H56.6079ZM71.0577 31.6078V6.28809H87.374L85.9425 10.5365H76.0485V16.1438H80.0841C83.3384 16.1438 85.0311 16.9325 86.2026 17.9397C87.114 18.7285 88.6759 20.4803 88.6759 23.9419C88.6759 27.3584 87.0702 29.2416 85.725 30.2057C84.1635 31.3001 82.5145 31.6078 79.1727 31.6078H71.0577ZM76.0485 27.3584H79.8241C81.2555 27.3584 82.1232 27.0077 82.7308 26.2189C83.0346 25.8251 83.4684 25.1236 83.4684 23.8097C83.4684 22.4958 83.0346 21.5757 82.1669 20.9183C81.6468 20.5244 80.9517 20.3059 79.7803 20.3059H76.0485V27.3584Z" fill="white"/>
</g>
</g>
<defs>
<clipPath id="clip0_1193_7241">
<rect width="88.7089" height="32" fill="white" transform="translate(0.207031)"/>
</clipPath>
</defs>
</svg>
