<svg width="103" height="32" viewBox="0 0 103 32" fill="none" xmlns="http://www.w3.org/2000/svg">
<g clip-path="url(#clip0_1193_7228)">
<mask id="mask0_1193_7228" style="mask-type:luminance" maskUnits="userSpaceOnUse" x="0" y="0" width="103" height="32">
<path d="M102.207 0H0.253906V32H102.207V0Z" fill="white"/>
</mask>
<g mask="url(#mask0_1193_7228)">
<path d="M24.5697 26.4486L21.7025 21.5452L18.8947 26.4486H15.5344L19.8518 19.0622L15.4512 12.2051H18.9622L21.7817 16.7833L24.4706 12.2051H27.8308L23.5016 19.2853L27.9498 26.4486H24.5697Z" fill="white"/>
<path d="M38.8759 21.6069C38.8759 24.7361 36.5824 26.694 33.5778 26.694C30.9339 26.694 28.6986 25.1892 28.4805 21.9116H31.3477C31.5447 23.3361 32.6524 23.9525 33.8593 23.9525C35.3623 23.9525 36.0101 22.9143 36.0101 21.5715C36.0101 20.1674 35.0027 19.2926 33.5989 19.2926C32.4316 19.2926 31.661 19.8627 31.3054 20.4736H28.5637L29.5102 12.2109H38.523L38.2229 14.9783H31.7747L31.5195 17.713C31.5195 17.713 32.1963 16.8967 34.2479 16.8967C36.7212 16.8967 38.8746 18.6055 38.8746 21.6177" fill="white"/>
<path d="M28.819 10.4313C27.2922 4.30885 22.4474 0 12.393 0H0.253906L1.90233 11.4681C3.14096 21.8163 6.98639 25.1456 13.7915 26.3714C13.8231 26.3801 13.8562 26.3807 13.8881 26.3732C13.9198 26.3656 13.9494 26.3502 13.9741 26.3282C13.9987 26.3062 14.0178 26.2782 14.0295 26.2468C14.0412 26.2155 14.0453 26.1817 14.0414 26.1483C14.0417 26.104 14.0294 26.0607 14.0059 26.0237C13.9824 25.9866 13.9487 25.9576 13.9092 25.9402C9.30894 23.9469 8.78421 17.4095 7.80196 10.8503L7.0419 5.62313H13.9713C20.3601 5.62313 25.2935 5.51972 28.4158 10.5959C28.4375 10.6323 28.4675 10.6626 28.5033 10.6842C28.539 10.7058 28.5793 10.718 28.6207 10.7197C28.649 10.7196 28.6769 10.7136 28.7028 10.7021C28.7288 10.6907 28.7522 10.674 28.7718 10.6531C28.7914 10.6322 28.8068 10.6074 28.8169 10.5803C28.827 10.5532 28.8318 10.5243 28.8309 10.4953C28.8314 10.4735 28.8283 10.4519 28.8216 10.4313" fill="white"/>
<path d="M55.3757 19.0309C55.3757 19.0309 56.0935 26.952 48.3154 26.952C44.2175 26.952 41.0449 23.7206 41.0449 19.3329C41.0449 14.9451 44.2254 11.7139 48.4344 11.7139C51.677 11.7139 54.264 13.6349 55.2488 16.5928H53.4272C52.564 14.6499 50.6975 13.3819 48.4185 13.3819C45.1759 13.3819 42.774 15.9179 42.774 19.3819C42.774 22.7411 45.053 25.3384 48.4185 25.3384C51.2514 25.3384 53.4061 23.4798 53.6533 20.5438H48.1237V19.0472H55.3757V19.0309Z" fill="white"/>
<path d="M64.1198 14.9105V16.7065C63.8811 16.6784 63.6409 16.6644 63.4007 16.6643C61.0398 16.6643 59.3979 18.248 59.3979 21.2276V26.7188H57.6953V15.1024H59.3979V17.701C60.0748 15.9691 61.4297 14.8711 63.4205 14.8711C63.6542 14.871 63.8877 14.8851 64.1198 14.9133" fill="white"/>
<path d="M76.5851 20.9104C76.5851 24.3961 74.0196 26.9511 70.7557 26.9511C67.5118 26.9511 64.9473 24.3742 64.9473 20.9104C64.9473 17.4246 67.5541 14.8682 70.7557 14.8682C73.9786 14.8682 76.5851 17.4246 76.5851 20.9104ZM66.671 20.9104C66.671 23.4654 68.4768 25.2831 70.7557 25.2831C73.0347 25.2831 74.8534 23.4654 74.8534 20.9104C74.8534 18.3553 73.0267 16.5375 70.7557 16.5375C68.4979 16.5375 66.671 18.3335 66.671 20.9104Z" fill="white"/>
<path d="M88.3656 15.1016V26.7206H86.6562V24.4172C85.8978 25.9383 84.5836 26.9519 82.6338 26.9519C80.1304 26.9519 78.6309 25.3043 78.6309 22.4729V15.1016H80.3336V22.1355C80.3336 24.2063 81.2787 25.2838 83.1257 25.2838C85.3635 25.2838 86.6562 23.6363 86.6562 21.058V15.1016H88.3603H88.3656Z" fill="white"/>
<path d="M102.207 20.9106C102.207 24.4181 99.9903 26.9514 96.9116 26.9514C96.0304 26.9695 95.1605 26.739 94.397 26.2847C93.6342 25.8305 93.0061 25.1699 92.5811 24.3746V32.0004H90.877V15.1025H92.5811V17.4889C93.0046 16.6846 93.6342 16.0151 94.4014 15.5533C95.1687 15.0915 96.0438 14.8551 96.9331 14.8698C99.9902 14.8698 102.207 17.3841 102.207 20.912V20.9106ZM100.489 20.912C100.489 18.3759 98.8881 16.5392 96.6087 16.5392C94.33 16.5392 92.567 18.3556 92.567 20.912C92.567 23.4685 94.3114 25.2848 96.6087 25.2848C98.9067 25.2848 100.489 23.4671 100.489 20.912Z" fill="white"/>
</g>
</g>
<defs>
<clipPath id="clip0_1193_7228">
<rect width="101.953" height="32" fill="white" transform="translate(0.253906)"/>
</clipPath>
</defs>
</svg>
