<svg width="32" height="32" viewBox="0 0 32 32" fill="none" xmlns="http://www.w3.org/2000/svg">
<path d="M25 5H7C6.20435 5 5.44129 5.31607 4.87868 5.87868C4.31607 6.44129 4 7.20435 4 8V27H28V8C28 7.20435 27.6839 6.44129 27.1213 5.87868C26.5587 5.31607 25.7956 5 25 5ZM7 7H25C25.2652 7 25.5196 7.10536 25.7071 7.29289C25.8946 7.48043 26 7.73478 26 8V8.667L18.122 16.546C17.5584 17.1073 16.7954 17.4225 16 17.4225C15.2046 17.4225 14.4416 17.1073 13.878 16.546L6 8.667V8C6 7.73478 6.10536 7.48043 6.29289 7.29289C6.48043 7.10536 6.73478 7 7 7ZM6 25V11.5L12.464 17.96C13.4026 18.8963 14.6743 19.422 16 19.422C17.3257 19.422 18.5974 18.8963 19.536 17.96L26 11.5V25H6Z" fill="#4D62FF"/>
</svg>
