<svg width="32" height="32" viewBox="0 0 32 32" fill="none" xmlns="http://www.w3.org/2000/svg">
<path d="M18.2002 20.261C15.2886 19.0282 12.9732 16.7075 11.7472 13.793L15.1472 10.387L8.8872 4.122L5.7162 7.292C5.1662 7.84514 4.73134 8.50186 4.43679 9.22415C4.14225 9.94645 3.99385 10.72 4.0002 11.5C4.0002 18.748 13.2522 28 20.5002 28C21.2801 28.0068 22.0536 27.8586 22.7758 27.5641C23.498 27.2695 24.1545 26.8344 24.7072 26.284L27.8782 23.113L21.6132 16.848L18.2002 20.261ZM23.2922 24.87C22.925 25.234 22.489 25.5214 22.0097 25.7154C21.5304 25.9094 21.0172 26.0061 20.5002 26C14.2672 26 6.0002 17.733 6.0002 11.5C5.99431 10.9828 6.09116 10.4696 6.28514 9.99019C6.47911 9.51074 6.76635 9.07458 7.1302 8.707L8.8872 6.95L12.3242 10.387L9.38919 13.322L9.63419 13.936C10.3554 15.8653 11.483 17.6171 12.9403 19.0725C14.3977 20.528 16.1509 21.6533 18.0812 22.372L18.6872 22.603L21.6132 19.676L25.0502 23.113L23.2922 24.87ZM18.0002 6V4C20.6515 4.00291 23.1933 5.05742 25.068 6.93215C26.9428 8.80688 27.9973 11.3487 28.0002 14H26.0002C25.9978 11.879 25.1542 9.84555 23.6544 8.34578C22.1546 6.846 20.1212 6.00238 18.0002 6ZM18.0002 10V8C19.591 8.00159 21.1162 8.63424 22.2411 9.75911C23.366 10.884 23.9986 12.4092 24.0002 14H22.0002C22.0002 12.9391 21.5788 11.9217 20.8286 11.1716C20.0785 10.4214 19.0611 10 18.0002 10Z" fill="#4D62FF"/>
</svg>
