<svg width="129" height="32" viewBox="0 0 129 32" fill="none" xmlns="http://www.w3.org/2000/svg">
<g clip-path="url(#clip0_1193_7226)">
<path d="M26.8449 7.83674V18.449C26.8449 22.7755 23.2939 26.2857 18.9171 26.2857H8.18165C3.80487 26.2857 0.253906 22.7755 0.253906 18.449V7.83674C0.253906 3.51021 3.80487 0 8.18165 0H18.9171C23.2939 0 26.8449 3.51021 26.8449 7.83674ZM21.8901 16.3266V16.4082C21.8901 16.8979 21.5597 17.3062 21.0642 17.3062C20.7339 17.3062 20.4036 17.2245 20.1558 16.8979C19.9081 16.5714 19.5777 16.1633 19.3301 15.4286C20.0733 12.8979 22.3855 4.89796 22.3855 4.89796H18.0087C18.0087 4.89796 17.5958 6.77551 17.2655 8.48976V8.40816C16.9352 7.67347 16.3571 6.77551 15.6965 6.20408C14.5404 5.14286 13.2191 4.65306 11.6501 4.65306C9.42039 4.65306 7.60359 5.46938 6.11713 7.02041C4.63068 8.57144 3.88746 10.6122 3.88746 12.8979C3.88746 15.4286 4.63068 17.4694 6.11713 19.0204C7.60359 20.653 9.42039 21.3878 11.8152 21.3878C13.2191 21.3878 14.5404 20.9796 15.6965 20.1633C16.4397 19.6734 17.1829 18.9388 17.9261 17.9592C18.1739 18.8571 18.5042 19.5102 18.8345 20C19.4126 20.7347 20.2384 21.2245 21.1468 21.2245C22.0552 21.2245 22.9636 20.7347 23.3765 20C23.7894 19.347 23.9545 18.5306 23.9545 17.0612V16.2449L21.8901 16.3266ZM14.6229 17.9592C13.9623 18.9388 13.1365 19.4286 12.1455 19.4286C10.9894 19.4286 10.1636 18.9388 9.50295 17.8775C8.84231 16.8163 8.51199 15.1837 8.51199 13.0612C8.51199 11.1021 8.84231 9.55104 9.58551 8.48976C10.2461 7.42857 11.072 7.02041 12.1455 7.02041C13.1365 7.02041 13.8797 7.42857 14.5404 8.32656C15.2836 9.22448 15.8617 10.7755 16.2745 12.8163C15.8617 15.4286 15.2836 16.9796 14.6229 17.9592ZM40.1404 5.38775C39.8101 4 38.9842 3.10204 37.0849 3.10204C35.3507 3.10204 34.3597 4 34.0294 5.38775L32.7081 11.4286H34.1945C34.5249 11.4286 34.8552 11.1837 34.9377 10.8571L35.1855 9.63264H39.0668L39.3145 10.8571C39.3971 11.1837 39.7274 11.4286 40.0577 11.4286H41.5442L40.1404 5.38775ZM35.5984 8L36.0939 5.79592C36.0939 5.46938 36.4242 4.89796 37.0849 4.89796C37.8281 4.89796 38.0758 5.46938 38.1584 5.79592L38.6539 8H35.5984ZM45.0952 5.14286V8.73472C45.0952 10.449 44.1042 11.5102 42.7004 11.5102H42.3701L41.9571 9.79592L42.3701 9.71432C42.7829 9.63264 43.1133 9.30616 43.1133 8.73472V4.48979C43.1133 3.83674 43.6913 3.2653 44.352 3.2653H50.3804V11.4286H48.3984V5.14286H45.0952ZM67.8874 3.34694H67.1442V2.36734H65.7404C65.4101 2.36734 65.1623 2.61225 65.1623 2.93878V3.2653H64.4191C61.9417 3.2653 60.3726 4.89796 60.3726 7.34694C60.3726 9.71432 61.9417 11.4286 64.4191 11.4286H65.1623V12.4082H66.5661C66.8965 12.4082 67.1442 12.1633 67.1442 11.8367V11.4286H67.8874C70.3649 11.4286 71.9339 9.79592 71.9339 7.34694C71.9339 5.06122 70.3649 3.34694 67.8874 3.34694ZM64.4191 9.71432C63.0152 9.71432 62.3545 8.89792 62.3545 7.42857C62.3545 5.95918 63.0152 5.14286 64.4191 5.14286H65.1623V9.71432H64.4191ZM67.8874 9.71432H67.1442V5.14286H67.8874C69.2914 5.14286 69.952 5.95918 69.952 7.42857C69.952 8.81632 69.2914 9.71432 67.8874 9.71432ZM56.6565 5.38775H53.7661V3.34694H51.7017V10.9388C51.7017 11.2653 51.9494 11.5102 52.2798 11.5102H56.5739C58.3081 11.5102 59.6294 10.2041 59.6294 8.48976C59.712 6.69388 58.6385 5.38775 56.6565 5.38775ZM56.6565 9.63264H53.7661V7.18367H56.6565C57.152 7.18367 57.7301 7.59184 57.7301 8.40816C57.7301 9.22448 57.152 9.63264 56.6565 9.63264ZM79.4488 5.38775C79.1184 4 78.2926 3.10204 76.3933 3.10204C74.6591 3.10204 73.6681 4 73.3377 5.38775L71.9339 11.4286H73.4204C73.7507 11.4286 74.081 11.1837 74.1636 10.8571L74.4113 9.63264H78.2926L78.5404 10.8571C78.6229 11.1837 78.9533 11.4286 79.2836 11.4286H80.7699L79.4488 5.38775ZM74.9068 8L75.4023 5.79592C75.4023 5.46938 75.7326 4.89796 76.3933 4.89796C77.0539 4.89796 77.3842 5.46938 77.4668 5.79592L77.9623 8H74.9068ZM91.1755 18.6938C91.5059 18.3674 91.7531 17.8775 91.7531 17.2245C91.7531 15.7551 90.5971 14.7755 89.1931 14.7755H84.2387C83.9083 14.7755 83.6603 15.0204 83.6603 15.347V22.2857C83.6603 22.6122 83.9083 22.8571 84.2387 22.8571H89.4411C90.9275 22.8571 92.0011 21.7959 92.0011 20.3266C92.0011 19.6734 91.6707 19.1021 91.1755 18.6938ZM89.1107 16.4898C89.3587 16.4898 89.7715 16.8163 89.7715 17.3062C89.7715 17.7959 89.4411 18.0408 89.1107 18.1225H85.5595V16.4898H89.1107ZM89.2755 21.3062H85.5595V19.6734H89.2755C89.5235 19.6734 89.9363 20 89.9363 20.4898C89.9363 20.9796 89.5235 21.3062 89.2755 21.3062ZM77.7971 14.6122C75.3197 14.6122 73.5855 16.3266 73.5855 18.8571C73.5855 21.3878 75.3197 23.102 77.7971 23.102H78.5404C81.0179 23.102 82.7523 21.3878 82.7523 18.8571C82.7523 16.3266 81.0179 14.6122 78.5404 14.6122H77.7971ZM75.8152 18.8571C75.8152 17.3878 76.5584 16.2449 78.0449 16.2449H78.4577C79.8617 16.2449 80.6875 17.3878 80.6875 18.8571C80.6875 20.3266 79.9442 21.4694 78.4577 21.4694H78.0449C76.5584 21.4694 75.8152 20.3266 75.8152 18.8571ZM40.2229 14.7755H47.9029L47.6552 16C47.5726 16.3266 47.2423 16.5714 46.912 16.5714H45.0952V22.9388H43.0307V16.5714H41.1313C40.801 16.5714 40.4707 16.3266 40.3881 16L40.2229 14.7755ZM108.187 14.7755H110.252V22.9388H108.187V19.7551H104.306V22.9388H102.241V14.7755H104.306V18.0408H108.187V14.7755ZM63.6758 16.8979C63.3455 15.5102 62.5197 14.6122 60.6204 14.6122C58.8861 14.6122 57.8952 15.5102 57.5649 16.8979L56.161 22.9388H57.6474C57.9777 22.9388 58.3081 22.6938 58.3907 22.3674L58.6384 21.1429H62.5197L62.7674 22.3674C62.8501 22.6938 63.1804 22.9388 63.5107 22.9388H64.9971L63.6758 16.8979ZM59.0513 19.4286L59.5468 17.2245C59.6294 16.8979 59.8771 16.3266 60.6204 16.3266C61.3636 16.3266 61.6114 16.8979 61.6939 17.2245L62.1894 19.4286H59.0513ZM99.9291 16.8979C99.5987 15.5102 98.7723 14.6122 96.8731 14.6122C95.1387 14.6122 94.1483 15.5102 93.8179 16.8979L92.4139 22.9388H93.9003C94.2307 22.9388 94.5611 22.6938 94.6435 22.3674L94.8915 21.1429H98.7723L99.0203 22.3674C99.1027 22.6938 99.4331 22.9388 99.7635 22.9388H101.25L99.9291 16.8979ZM95.3867 19.4286L95.8819 17.2245C95.9651 16.8979 96.2123 16.3266 96.9555 16.3266C97.6987 16.3266 97.9467 16.8979 98.0291 17.2245L98.5251 19.4286H95.3867ZM40.8836 22.9388H36.9197C34.5249 22.9388 32.8733 21.3062 32.8733 18.8571C32.8733 16.4898 34.5249 14.7755 36.9197 14.7755H39.8926L39.6449 16C39.5623 16.3266 39.232 16.5714 38.9017 16.5714H36.9197C35.5984 16.5714 34.8552 17.4694 34.8552 18.7755C34.8552 20.0816 35.5984 20.9796 36.9197 20.9796H39.8101C40.1404 20.9796 40.4707 21.2245 40.5533 21.551L40.8836 22.9388ZM53.3533 14.7755H49.0591C48.7288 14.7755 48.481 15.0204 48.481 15.347V22.9388H50.5455V20.8163H53.4358C55.4177 20.8163 56.4913 19.5102 56.4913 17.7959C56.4088 16.0816 55.0874 14.7755 53.3533 14.7755ZM53.3533 19.1021H50.4629V16.653H53.3533C53.8488 16.653 54.4268 17.0612 54.4268 17.8775C54.4268 18.6938 53.8488 19.1021 53.3533 19.1021ZM127.263 21.2245C127.593 21.2245 127.924 21.3878 128.006 21.7959L128.254 22.9388H121.482C121.152 22.9388 120.904 22.6938 120.904 22.3674V15.4286C120.904 15.102 121.152 14.8571 121.482 14.8571H128.254L128.006 16C127.924 16.4082 127.593 16.5714 127.263 16.5714H122.886V18.1225H127.593V19.6734H122.886V21.2245H127.263ZM111.572 22.9388V14.7755H113.637V20.1633L117.106 15.2653C117.271 15.0204 117.766 14.7755 118.096 14.7755H119.583V22.9388H117.519V17.551L114.05 22.449C113.885 22.6938 113.389 22.9388 113.059 22.9388H111.572ZM71.1081 18.8571L73.9984 23.0204H72.0991C71.6861 23.0204 71.4385 22.9388 71.1907 22.5306L69.6217 20.1633H69.3739L67.8874 22.449C67.6397 22.8571 67.392 22.9388 66.9791 22.9388H65.1623L67.9701 18.9388L65.0798 14.7755H66.9791C67.392 14.7755 67.6397 14.8571 67.8874 15.2653L69.3739 17.551H69.6217L71.1081 15.2653C71.3558 14.8571 71.6861 14.7755 72.0165 14.7755H73.8333L71.1081 18.8571ZM33.0384 29.2245C33.0384 28.1633 33.7817 27.1837 35.0204 27.1837C35.5158 27.1837 35.8461 27.2653 36.1765 27.5102L35.9287 27.9184C35.681 27.7551 35.4333 27.6734 35.1029 27.6734C34.1945 27.6734 33.6991 28.4082 33.6991 29.2245C33.6991 30.0408 34.1945 30.7755 35.1029 30.7755C35.5158 30.7755 35.8461 30.6122 36.0113 30.449L36.2591 30.8571C36.0939 31.0204 35.5984 31.2653 35.0204 31.2653C33.6991 31.1837 33.0384 30.2041 33.0384 29.2245ZM36.9197 27.2653H38.9842V27.7551H37.4152V28.898H38.8191V29.3062H37.4152V30.6938H39.0668V31.1837H36.9197V27.2653ZM39.9752 27.2653H41.0488C41.8745 27.2653 42.4526 27.6734 42.4526 28.4082C42.4526 29.1429 41.8745 29.6326 40.9661 29.6326H40.5533V31.1837H39.9752V27.2653ZM40.9661 29.1429C41.6268 29.1429 41.8745 28.8979 41.8745 28.4082C41.8745 28 41.6268 27.6734 40.9661 27.6734H40.4707V29.1429H40.9661ZM43.1958 27.2653H44.2694C45.0126 27.2653 45.5907 27.5102 45.5907 28.2449C45.5907 28.7347 45.3429 28.9796 44.8474 29.0612C45.3429 29.1429 45.6733 29.4694 45.6733 30.0408C45.6733 30.8571 45.0126 31.102 44.1868 31.102H43.1958V27.2653ZM44.2694 28.898C44.8474 28.898 45.0952 28.7347 45.0952 28.2449C45.0952 27.8367 44.8474 27.6734 44.2694 27.6734H43.7739V28.898H44.2694ZM44.2694 30.7755C44.9301 30.7755 45.1777 30.6122 45.1777 30.1225C45.1777 29.6326 45.0126 29.3878 44.2694 29.3878H43.6913V30.7755H44.2694ZM46.6642 27.2653H47.1597V29.8775C47.1597 30.2041 47.1597 30.3674 47.1597 30.449C47.2423 30.3674 47.3249 30.1225 47.5726 29.8775L49.3068 27.347H49.8023V31.2653H49.3068V28.4898C49.3068 28.3266 49.3068 28.0816 49.3068 28C49.2242 28.0816 49.1417 28.3266 48.9765 28.4898L47.0771 31.1837H46.5817L46.6642 27.2653ZM50.7107 29.2245C50.7107 28.1633 51.4539 27.1837 52.6926 27.1837C53.1881 27.1837 53.5185 27.2653 53.8488 27.5102L53.601 27.9184C53.3533 27.7551 53.1055 27.6734 52.7752 27.6734C51.8668 27.6734 51.3713 28.4082 51.3713 29.2245C51.3713 30.0408 51.8668 30.7755 52.7752 30.7755C53.1881 30.7755 53.5184 30.6122 53.6836 30.449L53.9313 30.8571C53.7661 31.0204 53.2707 31.2653 52.6926 31.2653C51.3713 31.1837 50.7107 30.2041 50.7107 29.2245ZM55.9133 27.2653H58.1429V27.7551H56.4913V28.898H57.152C57.9777 28.898 58.5558 29.3062 58.5558 30.0408C58.5558 30.7755 57.9777 31.2653 57.0694 31.2653H55.9958V27.2653H55.9133ZM56.9868 30.6938C57.6474 30.6938 57.8952 30.449 57.8952 29.9592C57.8952 29.551 57.6474 29.2245 56.9868 29.2245H56.4088V30.6938H56.9868ZM59.1339 31.102L59.2165 30.6938C59.2165 30.6938 59.2991 30.6938 59.3817 30.6938C59.712 30.6938 59.8771 30.5306 60.1249 30.0408L60.2074 29.7959L59.0513 27.102H59.5468L60.4552 29.2245L61.3636 27.102H61.8591L60.4552 30.2041C60.2074 30.8571 59.8771 31.0204 59.2991 31.0204C59.2991 31.1837 59.2165 31.1837 59.1339 31.102ZM61.8591 30.6938H62.1894C62.5197 30.449 62.6023 30.0408 62.6849 29.2245L62.8501 27.1837H65.1623V30.6122H65.5752L65.4926 32H65.1623V31.1837H62.5197L62.4371 32H62.1068L61.8591 30.6938ZM64.6668 30.6938V27.6734H63.4281L63.2629 29.3062C63.1804 30.0408 63.0152 30.449 62.8501 30.6938H64.6668ZM66.2358 31.102L66.3184 30.6938C66.3184 30.6938 66.401 30.6938 66.4836 30.6938C66.8139 30.6938 66.9791 30.5306 67.2268 30.0408L67.3094 29.7959L66.1533 27.102H66.6488L67.5571 29.2245L68.4655 27.102H68.961L67.5571 30.2041C67.3094 30.8571 66.9791 31.0204 66.401 31.0204C66.401 31.1837 66.3185 31.1837 66.2358 31.102ZM74.4113 31.1837H69.7042V27.2653H70.2823V30.6938H71.8513V27.2653H72.4294V30.6938H73.9984V27.2653H74.5765V30.6938H74.9894L74.9068 32H74.5765L74.4113 31.1837ZM75.7326 27.2653H77.7971V27.7551H76.2281V28.898H77.632V29.3062H76.2281V30.6938H77.8798V31.1837H75.7326V27.2653ZM78.7881 27.2653H80.9355V27.6734H79.3661V31.1837H78.7881V27.2653ZM81.1827 29.2245C81.1827 28.1633 81.9259 27.1837 83.1651 27.1837C84.4035 27.1837 85.1467 28.0816 85.1467 29.2245C85.1467 30.3674 84.4035 31.2653 83.1651 31.2653C81.9259 31.1837 81.1827 30.2857 81.1827 29.2245ZM84.5691 29.2245C84.5691 28.4082 84.0731 27.6734 83.1651 27.6734C82.2563 27.6734 81.7611 28.4082 81.7611 29.2245C81.7611 30.0408 82.2563 30.7755 83.1651 30.7755C84.0731 30.7755 84.5691 30.0408 84.5691 29.2245ZM87.2939 27.2653H88.3675C89.1107 27.2653 89.6891 27.5102 89.6891 28.2449C89.6891 28.7347 89.4411 28.9796 88.9459 29.0612C89.4411 29.1429 89.7715 29.4694 89.7715 30.0408C89.7715 30.8571 89.1107 31.102 88.2851 31.102H87.2115L87.2939 27.2653ZM88.2851 28.898C88.8627 28.898 89.1107 28.7347 89.1107 28.2449C89.1107 27.8367 88.8627 27.6734 88.2851 27.6734H87.7891V28.898H88.2851ZM88.3675 30.7755C89.0283 30.7755 89.2755 30.6122 89.2755 30.1225C89.2755 29.6326 89.0283 29.3878 88.3675 29.3878H87.7891V30.7755H88.3675ZM92.0011 27.2653H92.5787V28.898H94.7259V27.2653H95.3043V31.1837H94.7259V29.3878H92.5787V31.1837H92.0011V27.2653ZM97.4515 27.2653H97.9467L99.4331 31.1837H98.8555L98.5251 30.2041H96.7907L96.4603 31.102H95.8819L97.4515 27.2653ZM98.3595 29.7959L97.8643 28.4898C97.7819 28.1633 97.6987 28 97.6163 27.8367C97.6163 28 97.5339 28.2449 97.3691 28.4898L96.8731 29.7959H98.3595ZM99.7635 29.2245C99.7635 28.1633 100.507 27.1837 101.746 27.1837C102.241 27.1837 102.572 27.2653 102.902 27.5102L102.654 27.9184C102.406 27.7551 102.159 27.6734 101.828 27.6734C100.92 27.6734 100.424 28.4082 100.424 29.2245C100.424 30.0408 100.92 30.7755 101.828 30.7755C102.241 30.7755 102.572 30.6122 102.736 30.449L102.984 30.8571C102.819 31.0204 102.324 31.2653 101.746 31.2653C100.424 31.1837 99.7635 30.2041 99.7635 29.2245ZM104.388 27.6734H103.232V27.1837H106.04V27.6734H104.884V31.102H104.306L104.388 27.6734ZM106.37 29.2245C106.37 28.1633 107.113 27.1837 108.352 27.1837C109.591 27.1837 110.334 28.0816 110.334 29.2245C110.334 30.3674 109.591 31.2653 108.352 31.2653C107.113 31.2653 106.37 30.2857 106.37 29.2245ZM109.673 29.2245C109.673 28.4082 109.178 27.6734 108.269 27.6734C107.361 27.6734 106.866 28.4082 106.866 29.2245C106.866 30.0408 107.361 30.7755 108.269 30.7755C109.178 30.7755 109.673 30.0408 109.673 29.2245ZM110.747 30.6938C111.077 30.6938 111.242 30.3674 111.572 29.8775C111.738 29.6326 111.903 29.3878 112.068 29.3062C111.49 29.3062 110.995 28.8979 110.995 28.3266C110.995 27.6734 111.49 27.2653 112.316 27.2653H113.472V31.1837H112.894V29.3878H112.729C112.481 29.3878 112.316 29.7143 111.986 30.2041C111.49 30.9388 111.325 31.102 110.995 31.102H110.829L110.747 30.6938ZM112.894 28.9796V27.6734H112.316C111.738 27.6734 111.49 27.8367 111.49 28.3266C111.49 28.8163 111.738 28.9796 112.316 28.9796H112.894ZM119.252 31.1837H114.546V27.2653H115.124V30.6938H116.692V27.2653H117.271V30.6938H118.84V27.2653H119.418V30.6938H119.831L119.748 32H119.418L119.252 31.1837ZM120.574 27.2653H122.639V27.7551H121.069V28.898H122.473V29.3062H121.152V30.6938H122.721V31.1837H120.574V27.2653ZM123.877 27.2653H124.372L125.281 29.8775C125.364 30.2041 125.446 30.3674 125.529 30.6122C125.529 30.449 125.612 30.2041 125.776 29.8775L126.685 27.2653H127.18L127.759 31.1837H127.18L126.85 28.7347C126.85 28.4898 126.85 28.3266 126.768 28.1633C126.768 28.2449 126.685 28.4898 126.602 28.7347L125.694 31.1837H125.199L124.29 28.7347C124.208 28.4898 124.125 28.3266 124.125 28.1633C124.125 28.2449 124.125 28.4898 124.042 28.7347L123.712 31.1837H123.299L123.877 27.2653Z" fill="white"/>
</g>
<defs>
<clipPath id="clip0_1193_7226">
<rect width="128" height="32" fill="white" transform="translate(0.253906)"/>
</clipPath>
</defs>
</svg>
