<svg width="61" height="32" viewBox="0 0 61 32" fill="none" xmlns="http://www.w3.org/2000/svg">
<g clip-path="url(#clip0_1193_7211)">
<path fill-rule="evenodd" clip-rule="evenodd" d="M1.58197 4.40253C1.87986 4.58741 2.2142 4.72769 2.58463 4.82289C2.95499 4.91807 3.32056 5.00113 3.68125 5.07083C3.98253 5.12955 4.26636 5.18784 4.53168 5.24649C4.79721 5.3052 5.03053 5.37859 5.23032 5.46638C5.42991 5.5539 5.58775 5.65796 5.70253 5.77748C5.81739 5.89741 5.87457 6.04725 5.87457 6.2277C5.87457 6.44614 5.80542 6.62659 5.66803 6.76976C5.53057 6.91334 5.35631 7.02513 5.14685 7.1052C4.93648 7.18492 4.71074 7.2396 4.4681 7.26909C4.22552 7.29817 3.99554 7.30715 3.77967 7.2956C3.43155 7.27716 3.04969 7.17129 2.63359 6.97497C2.21755 6.77901 1.72463 6.50186 1.15391 6.1395C0.95742 6.64649 0.859368 6.90047 0.662812 7.4108C0.95742 7.62005 1.2346 7.79967 1.49351 7.95139C1.75204 8.1027 2.0095 8.22812 2.26513 8.32816C2.52077 8.42819 2.7815 8.50485 3.0468 8.55842C3.31233 8.61233 3.60253 8.64628 3.91714 8.65984C4.26455 8.67501 4.6434 8.6533 5.05321 8.59536C5.46337 8.53776 5.84521 8.41998 6.1993 8.24405C6.55366 8.0684 6.84904 7.8252 7.08493 7.51487C7.32118 7.20516 7.4393 6.80155 7.4393 6.30263C7.4393 5.96753 7.39025 5.67306 7.29189 5.41734C7.19297 5.16231 7.06038 4.94388 6.89328 4.76164C6.72563 4.57932 6.53057 4.42468 6.30775 4.29772C6.08452 4.17045 5.85001 4.06451 5.60403 3.97966C5.35818 3.89513 5.10747 3.82616 4.85147 3.77338C4.59582 3.72098 4.35109 3.67666 4.12368 3.63462C3.99958 3.6114 3.8239 3.58002 3.59727 3.54349C3.37141 3.50697 3.14668 3.45124 2.92378 3.37593C2.70088 3.30068 2.50774 3.20064 2.34385 3.07556C2.18002 2.95087 2.09796 2.78406 2.09796 2.57633C2.09796 2.45345 2.12909 2.33276 2.19159 2.2154C2.25364 2.09804 2.35877 1.99581 2.50584 1.90945C2.65368 1.82309 2.84689 1.76041 3.08608 1.72055C3.32535 1.68108 3.62217 1.677 3.9762 1.708C4.42205 1.7471 4.88785 1.85742 5.37307 2.03641C5.85822 2.2154 6.32076 2.45262 6.76055 2.7464C6.94149 2.30251 7.03172 2.0811 7.21307 1.63904C6.20925 0.896538 5.1305 0.462563 3.9762 0.351474C3.6482 0.320093 3.28782 0.319036 2.89447 0.348524C2.50104 0.378771 2.13062 0.466264 1.78363 0.612358C1.43595 0.758911 1.14614 0.983272 0.913573 1.28658C0.680704 1.58996 0.564453 1.99951 0.564453 2.51319C0.564453 2.98846 0.659535 3.3763 0.849706 3.6756C1.03918 3.97528 1.28324 4.21771 1.58197 4.40253Z" fill="white"/>
<path fill-rule="evenodd" clip-rule="evenodd" d="M13.715 4.54784C12.2732 4.48107 11.5521 4.44417 10.1107 4.36333V1.07067C9.46878 1.02416 9.14746 0.999807 8.50621 0.949219C8.50586 4.0626 8.50586 5.61953 8.50586 8.7325C9.1437 8.75609 9.46245 8.76756 10.1007 8.78927V5.72798C11.5462 5.79956 12.2687 5.83198 13.715 5.89069V8.90155C14.3573 8.91956 14.6787 8.92805 15.3206 8.94433V1.40089C14.6782 1.36618 14.3573 1.34811 13.715 1.30977V4.54784Z" fill="white"/>
<path fill-rule="evenodd" clip-rule="evenodd" d="M23.4915 8.33177C23.899 8.01824 24.2308 7.62297 24.4871 7.14693C24.7435 6.67055 24.8712 6.11111 24.8712 5.46714C24.8712 4.8376 24.7435 4.27598 24.4871 3.78144C24.2308 3.28704 23.899 2.86887 23.4915 2.52647C23.0839 2.18399 22.6222 1.91902 22.1066 1.73156C21.5905 1.5441 21.073 1.44081 20.5545 1.42236C20.0284 1.40353 19.5076 1.46258 18.9922 1.60097C18.4766 1.73973 18.0134 1.96295 17.6029 2.27262C17.1927 2.58182 16.8592 2.98071 16.6032 3.46966C16.3468 3.95861 16.2188 4.5439 16.2188 5.2229C16.2188 5.8734 16.3468 6.44836 16.6032 6.94547C16.8592 7.44217 17.1927 7.8613 17.6032 8.20189C18.0134 8.5429 18.4766 8.80126 18.9922 8.97761C19.5079 9.15403 20.0284 9.24586 20.5545 9.25434C21.0734 9.2629 21.5909 9.18902 22.1066 9.03472C22.6222 8.88015 23.0839 8.64585 23.4915 8.33177ZM20.5534 7.95243C20.1258 7.94429 19.7383 7.86937 19.3903 7.7269C19.0421 7.58485 18.7431 7.39326 18.4934 7.15278C18.2442 6.91215 18.0521 6.63347 17.9173 6.31653C17.7824 5.99994 17.7152 5.65977 17.7152 5.29692C17.7152 4.9198 17.7824 4.56999 17.9173 4.24786C18.0518 3.92572 18.2442 3.65039 18.4934 3.42195C18.7431 3.1932 19.0421 3.01641 19.3903 2.89095C19.7383 2.7655 20.1258 2.71015 20.5534 2.72384C20.9735 2.73744 21.3581 2.8179 21.7065 2.96476C22.0546 3.11199 22.3518 3.30761 22.5981 3.55224C22.8448 3.79732 23.0353 4.08217 23.1699 4.40764C23.3047 4.7331 23.3723 5.07813 23.3723 5.44272C23.3723 5.80732 23.3047 6.14464 23.1699 6.45455C23.0353 6.76453 22.8448 7.03166 22.5981 7.25532C22.3518 7.47966 22.0546 7.65385 21.7065 7.77817C21.3581 7.9022 20.9735 7.9605 20.5534 7.95243Z" fill="white"/>
<path fill-rule="evenodd" clip-rule="evenodd" d="M27.3588 6.92884C28.2065 6.93441 28.6304 6.93628 29.4785 6.93809C29.8924 6.93886 30.2798 6.88161 30.6416 6.76647C31.0032 6.651 31.32 6.48494 31.5931 6.26797C31.8658 6.05134 32.0794 5.78526 32.2339 5.47082C32.3881 5.15611 32.4657 4.80003 32.4657 4.40258C32.4657 3.99114 32.3852 3.62394 32.2239 3.30074C32.0631 2.97747 31.8446 2.70509 31.5685 2.4833C31.2926 2.26113 30.9705 2.09326 30.6027 1.97854C30.2341 1.86375 29.8433 1.80621 29.4291 1.8047C27.9621 1.79986 27.2284 1.79253 25.7617 1.76855V9.11646C26.4003 9.12119 26.7198 9.12341 27.3588 9.12668V6.92884ZM27.3581 3.1401C28.194 3.14827 28.6123 3.15084 29.4482 3.15303C29.6718 3.14714 29.872 3.18078 30.0496 3.25345C30.2272 3.3265 30.3765 3.4239 30.4981 3.54534C30.6198 3.66671 30.7134 3.80366 30.7792 3.95603C30.8449 4.10847 30.8777 4.26485 30.8777 4.42433C30.8777 4.60476 30.8349 4.77301 30.7498 4.92954C30.664 5.08564 30.5474 5.22108 30.3995 5.33587C30.2517 5.45058 30.0794 5.53872 29.8817 5.60112C29.6848 5.6631 29.4745 5.69413 29.2508 5.69336C28.4937 5.69121 28.1156 5.68926 27.3581 5.68341V3.1401Z" fill="white"/>
<path fill-rule="evenodd" clip-rule="evenodd" d="M34.9018 6.91584C35.7499 6.907 36.1738 6.90186 37.0211 6.88892C37.4353 6.88266 37.8227 6.81845 38.1843 6.69594C38.5461 6.57379 38.8627 6.40036 39.1353 6.17636C39.4083 5.95236 39.6216 5.6796 39.7761 5.35862C39.9303 5.03751 40.0075 4.67555 40.0075 4.27372C40.008 3.85743 39.9274 3.48773 39.7661 3.16484C39.6052 2.84188 39.3871 2.57214 39.1108 2.35482C38.8351 2.13779 38.513 1.97694 38.1452 1.87108C37.7772 1.76552 37.3863 1.71788 36.9721 1.72786C35.505 1.76257 34.7713 1.77512 33.3047 1.791V9.12704C33.9436 9.1237 34.263 9.12189 34.9018 9.11702V6.91584ZM34.9022 3.12139C35.738 3.10921 36.156 3.10142 36.9918 3.08373C37.2151 3.07193 37.4157 3.10067 37.5929 3.1697C37.7705 3.23905 37.9199 3.3332 38.0413 3.45275C38.1632 3.5723 38.2568 3.70811 38.3225 3.86049C38.3879 4.01293 38.421 4.16939 38.421 4.33068C38.421 4.51255 38.3782 4.68307 38.2932 4.84247C38.2074 5.00189 38.0908 5.1406 37.9432 5.25907C37.7954 5.37754 37.6226 5.4702 37.4254 5.53657C37.2284 5.60293 37.0179 5.63806 36.7946 5.64175C36.0374 5.65434 35.6589 5.65984 34.9022 5.66867V3.12139Z" fill="white"/>
<path fill-rule="evenodd" clip-rule="evenodd" d="M42.5238 1.54004C41.9053 1.56696 41.5955 1.57989 40.977 1.60348C40.9766 4.5778 40.9766 6.06452 40.9766 9.03885C41.5951 9.02772 41.905 9.02181 42.5238 9.00928V1.54004Z" fill="white"/>
<path fill-rule="evenodd" clip-rule="evenodd" d="M45.5471 4.18019C47.5171 5.99765 48.5023 6.91424 50.4713 8.79292C50.7506 8.78373 50.8906 8.77886 51.17 8.76899V1.02734C50.5522 1.07385 50.2428 1.09593 49.6246 1.13881V5.75264C47.7378 3.99607 46.7942 3.1359 44.9066 1.42548C44.5362 1.44506 44.3512 1.45429 43.9809 1.47236C43.9809 4.47473 43.9805 5.97546 43.9805 8.9774C44.6072 8.96342 44.9204 8.9557 45.5471 8.93977V4.18019Z" fill="white"/>
<path fill-rule="evenodd" clip-rule="evenodd" d="M55.8941 5.36282C56.8462 5.30307 57.3222 5.27176 58.2743 5.20602V6.35774C58.1364 6.48136 57.9823 6.59795 57.8117 6.70717C57.6412 6.81681 57.458 6.91093 57.2612 6.99058C57.0646 7.06995 56.8614 7.13451 56.6516 7.18362C56.4417 7.23267 56.2348 7.26216 56.0316 7.27253C55.6971 7.28985 55.3807 7.2415 55.0824 7.1286C54.7837 7.01562 54.5232 6.847 54.3003 6.62265C54.0771 6.39865 53.8998 6.12407 53.7687 5.799C53.6376 5.47434 53.5722 5.1071 53.5722 4.69681C53.5722 4.28642 53.6328 3.9152 53.7543 3.58241C53.8753 3.24916 54.0463 2.96241 54.2657 2.72103C54.4853 2.48012 54.7462 2.28751 55.0481 2.14286C55.3495 1.99857 55.6775 1.91033 56.0316 1.88046C56.3599 1.85278 56.6597 1.85127 56.9317 1.87713C57.2036 1.90299 57.4384 1.94904 57.6349 2.01589C57.7136 2.04727 57.818 2.0875 57.9496 2.13726C58.0808 2.18709 58.2118 2.24245 58.343 2.3037C58.4741 2.36533 58.5985 2.42551 58.7167 2.48458C58.8344 2.54318 58.9229 2.59339 58.9819 2.6343C59.2494 2.18051 59.3832 1.95244 59.6503 1.4945C59.6045 1.44467 59.5206 1.37714 59.3999 1.29222C59.2784 1.20737 59.1373 1.11882 58.9768 1.02657C58.8167 0.934621 58.6427 0.847581 58.4559 0.765988C58.2694 0.684847 58.0844 0.617702 57.9101 0.578224C57.7371 0.539059 57.5547 0.513953 57.3741 0.493007C57.1939 0.472666 57.02 0.460868 56.8529 0.457535C56.6861 0.454593 56.5316 0.456026 56.391 0.461925C56.25 0.467901 56.1334 0.474475 56.0415 0.4834C55.5823 0.526203 55.1184 0.65165 54.6495 0.857563C54.1803 1.06309 53.7572 1.34871 53.3802 1.71326C53.0027 2.07827 52.6962 2.51808 52.4604 3.0347C52.2237 3.55133 52.1055 4.1407 52.1055 4.80638C52.1055 5.46508 52.2223 6.03927 52.4551 6.53194C52.6881 7.0246 52.9915 7.4342 53.3657 7.76032C53.7394 8.08658 54.1606 8.32867 54.6299 8.48547C55.0987 8.64199 55.566 8.71169 56.0316 8.69173C56.4974 8.67183 56.9317 8.59614 57.3351 8.463C57.7382 8.33013 58.0881 8.17701 58.3824 8.01054C58.6818 7.84115 58.9426 7.67399 59.1592 7.50759C59.3753 7.34119 59.5388 7.20018 59.6503 7.08505V3.85396C58.1561 3.97464 57.4087 4.03113 55.9138 4.13662C55.906 4.62708 55.9019 4.87246 55.8941 5.36282Z" fill="white"/>
<path fill-rule="evenodd" clip-rule="evenodd" d="M3.82102 11.3666C2.85215 11.3338 2.16708 11.3091 1.20788 11.2729C0.856406 11.2592 0.563696 11.5394 0.564455 11.8888C0.5793 18.1086 0.593846 24.328 0.60899 30.5478C0.609756 30.9124 0.927815 31.195 1.29261 31.157C5.28431 30.7389 9.27492 30.3973 13.2734 30.1227C13.5976 30.1005 13.8495 29.8331 13.8495 29.5101V27.524C13.8495 27.1716 13.5519 26.8908 13.1976 26.9093C10.4912 27.0494 7.78629 27.2085 5.08146 27.3963C4.72375 27.4211 4.41947 27.1403 4.41947 26.7838V11.9814C4.41947 11.6497 4.15457 11.3781 3.82102 11.3666Z" fill="white"/>
<path fill-rule="evenodd" clip-rule="evenodd" d="M17.2181 29.8488C18.1331 29.805 18.7928 29.7773 19.7178 29.7437C20.0507 29.7315 20.3153 29.46 20.3153 29.1289V12.3678C20.3153 12.0339 20.0392 11.7572 19.703 11.7527C18.7791 11.7412 18.1186 11.732 17.1988 11.7169C16.8525 11.7114 16.5687 11.987 16.5687 12.3309C16.5687 16.7407 16.5684 26.6207 16.5684 29.2356C16.5684 29.5869 16.8648 29.8659 17.2181 29.8488Z" fill="white"/>
<path fill-rule="evenodd" clip-rule="evenodd" d="M31.9054 24.0804C29.9472 20.1009 27.9794 16.1285 26.0205 12.1497C25.9172 11.9398 25.7029 11.8062 25.4677 11.8051C24.455 11.8002 23.7548 11.7954 22.8554 11.7874C22.3922 11.7832 22.0875 12.2671 22.2948 12.6786C25.0899 18.2222 27.9088 23.749 30.7196 29.2817C30.8239 29.4876 31.036 29.6182 31.2683 29.6197C32.1836 29.6253 32.7836 29.6323 33.6953 29.6477C33.9357 29.6518 34.1574 29.5171 34.2629 29.3027C36.9923 23.7512 39.705 18.1894 42.3745 12.5963C42.5714 12.1841 42.2631 11.7095 41.8039 11.7169C40.9513 11.7309 40.2819 11.7405 39.3223 11.7526C39.0856 11.7556 38.8717 11.8925 38.7707 12.1051C36.8719 16.1085 34.9476 20.0943 33.0191 24.0771C32.7952 24.5402 32.1323 24.5417 31.9054 24.0804Z" fill="white"/>
<path fill-rule="evenodd" clip-rule="evenodd" d="M45.1674 30.1571C49.7747 30.4494 54.3697 30.8364 58.9659 31.3187C59.3315 31.3571 59.6497 31.0726 59.6497 30.7077V28.6508C59.6497 28.3309 59.4024 28.0634 59.0814 28.0367C55.7331 27.7603 52.3852 27.5212 49.0335 27.3187C48.707 27.2991 48.4521 27.0308 48.4521 26.7057V23.0904C48.4521 22.7428 48.7423 22.4639 49.092 22.4749C51.777 22.5612 54.4618 22.6658 57.1459 22.7889C57.4984 22.8051 57.7931 22.5259 57.7931 22.1753V20.2984C57.7931 19.9642 57.5244 19.6907 57.1882 19.6826C54.4789 19.618 51.7696 19.5633 49.0602 19.518C48.723 19.5125 48.4521 19.2394 48.4521 18.904V15.2592C48.4521 14.9219 48.7251 14.6474 49.0652 14.644C52.3176 14.6145 55.787 14.5813 59.0394 14.5388C59.3782 14.5344 59.6497 14.2607 59.6497 13.9241V11.897C59.6497 11.5487 59.3601 11.2701 59.0097 11.2826C54.4831 11.4417 49.7193 11.5698 45.1926 11.6664C44.8561 11.6738 44.5879 11.9469 44.5879 12.2812V29.5442C44.5879 29.8685 44.8416 30.1365 45.1674 30.1571Z" fill="white"/>
</g>
<defs>
<clipPath id="clip0_1193_7211">
<rect width="59.8261" height="32" fill="white" transform="translate(0.427734)"/>
</clipPath>
</defs>
</svg>
