
  <svg viewBox="0 0 358 64" preserveAspectRatio="none" style="width: 100%; height: 100%; display: block;" xmlns="http://www.w3.org/2000/svg" fill="none">
    <path d="M274 0C280.712 0 286.94 2.06666 292.085 5.59809C296.594 8.69318 303.406 8.69318 307.915 5.59809C313.06 2.06666 319.288 0 326 0C343.673 0 358 14.3269 358 32C358 49.6731 343.673 64 326 64C319.288 64 313.06 61.9332 307.915 58.4016C303.406 55.3063 296.594 55.3063 292.085 58.4016C286.94 61.9332 280.712 64 274 64H32C14.3269 64 0 49.6731 0 32C0 14.3269 14.3269 0 32 0H274Z" fill="currentColor"/>
  </svg>

