<svg width="163" height="48" viewBox="0 0 163 48" fill="currentColor" xmlns="http://www.w3.org/2000/svg">
<path fill-rule="evenodd" clip-rule="evenodd" d="M0 0H26.5231V9.50371H11.3671V14.5689H24.966V24.0727H11.3671V36.5529H0V0Z" fill="currentColor"/>
<path fill-rule="evenodd" clip-rule="evenodd" d="M32.3359 36.5529H43.703V0H32.3359V36.5529Z" fill="currentColor"/>
<path fill-rule="evenodd" clip-rule="evenodd" d="M51.0742 0H61.8703L72.5626 17.1276V0H83.6701V36.5529H72.8739L62.1817 19.4252V36.5529H51.0742V0Z" fill="currentColor"/>
<path fill-rule="evenodd" clip-rule="evenodd" d="M91.0391 36.5529H102.406V0H91.0391V36.5529Z" fill="currentColor"/>
<path fill-rule="evenodd" clip-rule="evenodd" d="M109.775 0H121.142V17.2321L129.239 0H142.164L132.717 18.1198L142.423 36.5529H129.188L121.142 19.0075V36.5529H109.775V0Z" fill="currentColor"/>
<path fill-rule="evenodd" clip-rule="evenodd" d="M162.673 32.5748C162.673 34.9778 158.825 36.9259 154.079 36.9259C149.332 36.9259 145.484 34.9778 145.484 32.5748C145.484 30.1717 149.332 28.2236 154.079 28.2236C158.825 28.2236 162.673 30.1717 162.673 32.5748Z" fill="currentColor"/>
<path fill-rule="evenodd" clip-rule="evenodd" d="M4.51791 43.3704C4.51791 42.2973 3.90084 41.6871 2.71905 41.6871H1.45369V46.6531H2.71905C3.90084 46.6531 4.51791 46.0429 4.51791 44.9696V43.3704ZM2.97012 40.4875C4.93626 40.4875 5.9716 41.708 5.9716 43.3811V44.9592C5.9716 46.6322 4.93626 47.8525 2.97012 47.8525H0V40.4875H2.97012Z" fill="currentColor"/>
<path fill-rule="evenodd" clip-rule="evenodd" d="M7.5625 40.4875H12.6869V41.708H9.02665V43.5072H12.3732V44.7381H9.02665V46.632H12.6974V47.8525H7.5625V40.4875Z" fill="currentColor"/>
<path fill-rule="evenodd" clip-rule="evenodd" d="M14.0039 45.7166V45.5273H15.4053V45.6851C15.4053 46.369 15.9387 46.8636 16.9218 46.8636C17.7897 46.8636 18.3545 46.4742 18.3545 45.7903C18.3545 45.3799 18.1558 45.0854 17.6643 44.9592L15.7504 44.4647C14.6418 44.1806 14.119 43.6649 14.119 42.5602C14.119 41.1714 15.1648 40.3403 16.8067 40.3403C18.4277 40.3403 19.4526 41.2452 19.4526 42.5392V42.7181H18.1035V42.5707C18.1035 41.9502 17.7061 41.4765 16.8067 41.4765C16.0328 41.4765 15.5308 41.7923 15.5308 42.434C15.5308 42.8654 15.7504 43.1072 16.1583 43.2127L18.1663 43.7492C19.2434 44.0333 19.7663 44.675 19.7663 45.6746C19.7663 47.0739 18.5218 47.9998 16.8695 47.9998C15.1439 47.9998 14.0039 47.1581 14.0039 45.7166Z" fill="currentColor"/>
<path fill-rule="evenodd" clip-rule="evenodd" d="M21.334 47.8525H22.7981V40.4875H21.334V47.8525Z" fill="currentColor"/>
<path fill-rule="evenodd" clip-rule="evenodd" d="M29.2933 42.9917C29.262 42.2236 28.7077 41.5504 27.6619 41.5504C26.4696 41.5504 25.9049 42.3394 25.9049 43.5705V44.7277C25.9049 45.9588 26.4069 46.8216 27.6723 46.8216C28.739 46.8216 29.3247 46.1587 29.3247 45.3486V45.2434H27.6828V44.0438H30.7574V45.0013C30.7574 46.769 29.5339 48.0001 27.6513 48.0001C25.4761 48.0001 24.4512 46.527 24.4512 44.6963V43.623C24.4512 41.6449 25.6225 40.3403 27.62 40.3403C29.513 40.3403 30.6424 41.4662 30.6843 42.9917H29.2933Z" fill="currentColor"/>
<path fill-rule="evenodd" clip-rule="evenodd" d="M32.3555 40.4875H33.7464L36.9361 45.3907V40.4875H38.3689V47.8525H36.9779L33.7882 42.9496V47.8525H32.3555V40.4875Z" fill="currentColor"/>
<path fill-rule="evenodd" clip-rule="evenodd" d="M42.9082 40.4875H44.3724V46.632H47.7398V47.8525H42.9082V40.4875Z" fill="currentColor"/>
<path fill-rule="evenodd" clip-rule="evenodd" d="M51.0339 45.138H53.136L52.0901 41.8133L51.0339 45.138ZM55.4577 47.8526H54.004L53.5125 46.3059H50.6678L50.1764 47.8526H48.7227L51.3476 40.4875H52.8327L55.4577 47.8526Z" fill="currentColor"/>
<path fill-rule="evenodd" clip-rule="evenodd" d="M59.9758 46.6952C60.6765 46.6952 61.0634 46.3059 61.0634 45.6851C61.0634 45.0749 60.6555 44.6857 59.9654 44.6857H58.1351V46.6952H59.9758ZM59.6726 43.5388C60.2896 43.5388 60.6242 43.1285 60.6242 42.5603C60.6242 42.0027 60.2686 41.6449 59.6621 41.6449H58.1351V43.5388H59.6726ZM56.7129 40.4875H59.9967C61.2831 40.4875 62.0883 41.2451 62.0883 42.3499C62.0883 43.1915 61.6805 43.7492 61.168 44.0438C61.921 44.2016 62.5276 44.7803 62.5276 45.7798C62.5276 47.0108 61.5132 47.8526 60.049 47.8526H56.7129V40.4875Z" fill="currentColor"/>
</svg>
